<svg xmlns="http://www.w3.org/2000/svg" version="1.1" viewBox="0 0 1500 500"><defs><style>
      .cls-1 {
        fill: #85d8f9;
      }
      .cls-2 {
        fill: #08a6f4;
      }
      .cls-3 {
        fill: #fff;
      }
      .cls-4 {
        fill: #0590c6;
      }
    </style></defs><g><g id="Layer_1"><path class="cls-3" d="M1485.1,338.7c-.2-1.7-1.3-3.2-2.8-3.9-1.3-.6-2.8-.4-4.1.6h0c-37.8,28.4-83.4,46.4-131.9,52.1-25,3-49.5,2.3-72.9-2-23.5-4.3-46.3-13-67.4-21.8-6.6-2.7-13.3-5.6-19.8-8.3-37.1-15.8-75.5-32.1-117.4-36-25.7-2.4-68.1-2.3-140.1,25.7-13.9,5.4-27.8,11.5-41.2,17.4-9.5,4.2-19.3,8.5-29,12.5-22.8,9.5-47.1,17-72.2,22.4-48.7,10.5-100.3,10.6-149.3.4-36.2-7.5-71.4-21-104.7-39.9,1.1-.6,2.3-1.2,3.4-1.7,40.9-21.3,78.9-50.9,112.7-88.1,25.7-28.2,52.9-62.1,50.3-107.3-.9-16.7-6.2-32.7-15.3-46.2-9.3-13.9-22.3-24.6-37.4-31-18.4-7.7-38.8-8.9-59.1-3.3-18.8,5.1-36.9,16-50.9,30.6-.4.4-.8.9-1.3,1.4-3.9-5.5-8.1-10.6-11.5-14.4-13.1-15-32.4-24.8-54.3-27.5-38.1-4.7-76.9,16.3-92.2,50-17.3,38.1-.3,83,11.4,106.4,16.3,32.7,41.9,63.9,78.3,95.5,14.7,12.8,30.6,24.6,47.3,35-51.8,24.3-112,39.7-174.3,44.6-31.3,2.5-62.7,2-93.5-1.2-21.6-2.3-43.2-8.4-64.1-14.3-4.2-1.2-8.4-2.4-12.6-3.5-2.2-.6-4.3-1.2-6.5-1.8-46.5-12.9-99.1-27.6-144.4-6.7-1.4.7-2.3,1.9-2.5,3.4-.1,1.6.7,3.3,2.1,4.3,1.4,1,3.1,1.1,4.7.4,35.8-16.5,77-8.2,119.5,2.6,9.6,2.4,19.2,5.1,28.6,7.7,28.5,7.8,58,16,88.3,18.4,45.2,3.6,90.8,1.3,135.7-6.8,45.1-8.2,88.2-22.1,128.3-41.4,15.6,9.2,32.1,17.4,49.1,24.5,43.4,18,90,27,137.5,27,49.5,0,100.1-9.8,149.2-29.3,12.4-4.9,24.9-10.3,36.9-15.4,32.7-14,66.5-28.5,102.2-36.1,47.3-10.1,95.5-5.3,147.4,14.8,12.3,4.7,24.6,10,36.5,15.2,31.3,13.4,63.6,27.3,98.3,32.8,43.3,6.8,90.6,1.2,136.8-16.2,23.6-8.9,46-21.2,66.5-36.6,1.4-1,2.1-2.7,1.9-4.4ZM536.1,145.6c-.8.9-1.5,1.4-1.9,1.3-1.7-.5-3.5-5.9-3.6-7.8-.2-2.6.9-5.5,2-8,.4-.9.8-1.8,1.3-2.7,1,2,1.9,4,2.6,5.9,1.9,5.1,1.8,8.6-.3,11.2ZM525.2,150.1c3.2,4.9,7.7,6.7,12.3,4.8,6.1-2.5,10.4-11,9.1-17.8-1.1-5.7-3.3-11.4-6.8-17.5,9.9-12.1,24.4-20.6,32.3-24.6,21.7-11.1,47.6-12.1,71.2-3,37.2,14.4,51,57.2,45.3,92-3.8,23.3-17,42.1-29.4,57.5-15.2,18.8-32.1,36.7-50.4,53.1-24.9,22.4-53.7,41.8-85.6,57.7-41.7-25.3-78.5-58.8-106.5-97-28.1-38.3-40.5-75.4-37.1-110.3,2-20.4,12.8-38.4,30.5-50.7,14.5-10,32.6-15.5,50.7-15.5s5.3.1,7.9.4c26.5,2.4,44.4,19.1,54.7,32.8,2,2.6,3.8,5.1,5.3,7.6-8.1,11.6-9.3,21.8-3.5,30.5Z"></path><path class="cls-4" d="M482,77.3c-.2,1.3.3,2.7.9,3.8.2.4.5.8.8,1.1,18.5,6,31.5,18.8,39.8,29.8,2,2.6,3.8,5.1,5.3,7.6-8.1,11.6-9.3,21.8-3.5,30.5,3.2,4.9,7.7,6.7,12.3,4.8,6.1-2.5,10.4-11,9.1-17.8-1.1-5.7-3.3-11.4-6.8-17.5,9.9-12.1,24.4-20.6,32.3-24.6,21.7-11.1,47.6-12.1,71.2-3,37.2,14.4,51,57.2,45.3,92-3.8,23.3-17,42.1-29.4,57.5-15.2,18.8-32.1,36.7-50.4,53.1-24.5,22.1-52.9,41.3-84.3,57.1,1.7.8,3.4,1.8,5,2.8,1.5.8,2.9,1.8,4.4,2.6.6-.3,1.3-.7,1.9-1,40.9-21.3,78.9-50.9,112.7-88.1,25.7-28.2,52.9-62.1,50.3-107.3-.9-16.7-6.2-32.7-15.3-46.2-9.3-13.9-22.3-24.6-37.4-31-18.4-7.7-38.8-8.9-59.1-3.3-18.8,5.1-36.9,16-50.9,30.6-.4.4-.8.9-1.3,1.4-3.9-5.5-8.1-10.6-11.5-14.4-9.3-10.8-21.9-18.8-36.3-23.5-.3,0-.6,0-.9,0-1.9.2-3.9,1.1-4.2,3.1ZM532.5,131.1c.4-.9.8-1.8,1.3-2.7,1,2,1.9,4,2.6,5.9,1.9,5.1,1.8,8.6-.3,11.2-.8.9-1.5,1.4-1.9,1.3-1.7-.5-3.5-5.9-3.6-7.8-.2-2.6.9-5.5,2-8Z"></path><path class="cls-4" d="M517.4,360.7c-1.7-1-3.3-2.2-5-3.1-51.5,24-111.2,39.2-173,44-31.3,2.5-62.7,2-93.5-1.2-21.6-2.3-43.2-8.4-64.1-14.3-4.2-1.2-8.4-2.4-12.6-3.5-2.2-.6-4.3-1.2-6.5-1.8-46.5-12.9-99.1-27.6-144.4-6.7-1.4.7-2.3,1.9-2.5,3.4-.1,1.6.7,3.3,2.1,4.3,1.4,1,3.1,1.1,4.7.4,35.8-16.5,77-8.2,119.5,2.6,9.6,2.4,19.2,5.1,28.6,7.7,28.5,7.8,58,16,88.3,18.4,45.2,3.6,90.8,1.3,135.7-6.8,44.7-8.1,87.5-21.9,127.3-40.9-1.4-.9-3-1.5-4.4-2.3Z"></path><path class="cls-2" d="M780.2,406.9c1.1-1.4,1.8-3.2.6-4.8-1.1-1.5-3-2.2-4.8-2.7-45.6,8.3-93.3,7.8-138.8-1.7-36.2-7.5-71.4-21-104.7-39.9.1,0,.3-.1.4-.2-1.2-.6-2.3-1.4-3.5-2-1.9-1.1-3.9-2.3-6-3.3,0,0-.1,0-.2,0-41.7-25.3-78.5-58.8-106.5-97-28.1-38.3-40.5-75.4-37.1-110.3,2-20.4,12.8-38.4,30.5-50.7,14.5-10,32.6-15.5,50.7-15.5s5.3.1,7.9.4c4.8.4,9.3,1.3,13.5,2.6-.2-.3-.3-.6-.5-.9-1.1-2.4-1.1-5.3,1.3-6.8.5-.3,1.1-.6,1.8-.7-5-1.5-10.3-2.6-15.7-3.3-38.1-4.7-76.9,16.3-92.2,50-17.3,38.1-.3,83,11.4,106.4,16.3,32.7,41.9,63.9,78.3,95.5,14.7,12.8,30.6,24.6,47.3,35,0,0-.1,0-.2,0,1.5.8,2.9,1.9,4.4,2.7,1.7,1,3.6,1.7,5.2,2.9,15.6,9.1,32,17.3,48.8,24.3,43.4,18,90,27,137.5,27,23.3,0,46.8-2.2,70.2-6.5.2-.2.4-.4.6-.7Z"></path><path class="cls-1" d="M1485.1,338.7c-.2-1.7-1.3-3.2-2.8-3.9-1.3-.6-2.8-.4-4.1.6h0c-37.8,28.4-83.4,46.4-131.9,52.1-25,3-49.5,2.3-72.9-2-23.5-4.3-46.3-13-67.4-21.8-6.6-2.7-13.3-5.6-19.8-8.3-37.1-15.8-75.5-32.1-117.4-36-25.7-2.4-68.1-2.3-140.1,25.7-13.9,5.4-27.8,11.5-41.2,17.4-9.5,4.2-19.3,8.5-29,12.5-22.8,9.5-47.1,17-72.2,22.4-2.8.6-5.7,1.2-8.5,1.7,1.7.7,3.5,1.7,4.2,3.5.7,1.7,0,3.4-1,4.8,26-4.9,51.9-12.4,77.4-22.5,12.4-4.9,24.9-10.3,36.9-15.4,32.7-14,66.5-28.5,102.2-36.1,47.3-10.1,95.5-5.3,147.4,14.8,12.3,4.7,24.6,10,36.5,15.2,31.3,13.4,63.6,27.3,98.3,32.8,43.3,6.8,90.6,1.2,136.8-16.2,23.6-8.9,46-21.2,66.5-36.6,1.4-1,2.1-2.7,1.9-4.4Z"></path></g></g></svg>