<svg xmlns="http://www.w3.org/2000/svg" version="1.1" viewBox="0 0 200 200"><defs><style>
      .cls-1 {
        fill: #f9679b;
      }
      .cls-2 {
        fill: #e02889;
      }
    </style></defs><g><g id="Layer_1"><g id="Layer_1-2"><path class="cls-1" d="M162.3,75.4c-1.1-1.1-2.3-2-3.6-2.8l1.2-8c.6-3.9-.7-7.8-3.8-10.9-2.3-2.3-5.4-4-8.8-4.8l.2-1.3c.5-3.4-.6-6.7-3.2-9.3-2.8-2.9-7-4.5-11.4-4.5h-64.8c-4.5,0-8.6,1.6-11.4,4.5-2.6,2.6-3.7,5.9-3.2,9.3l.2,1.3c-3.4.8-6.5,2.4-8.8,4.8-3,3.1-4.3,6.9-3.8,10.9l1.2,8c-1.3.8-2.5,1.7-3.6,2.8-3.2,3.3-4.7,7.5-4,11.7l10,66.3c1.2,7.8,9.2,13.6,18.8,13.6h74.2c9.5,0,17.6-5.9,18.8-13.6l10-66.3c.6-4.2-.8-8.4-4-11.7h-.2ZM137.6,157H63.4c-3.9,0-7.2-2.2-7.6-5l-3.4-22.6-6.6-43.7c-.3-1.7.6-3,1.4-3.8s1.2-1,2-1.4c1.2-.6,2.7-.9,4.2-.9h94.2c1.5,0,3,.3,4.2.9s1.4.9,2,1.4c.8.8,1.6,2.1,1.4,3.8l-6.6,43.7-3.4,22.6c-.4,2.8-3.8,5-7.6,5h0ZM52.2,63.3c-.2-1.3.5-2.3,1.1-2.9.5-.5,1.2-.9,1.9-1.3,1-.4,2.1-.7,3.2-.7h84.2c1.2,0,2.3.2,3.2.7.7.3,1.4.7,1.9,1.3.6.6,1.3,1.6,1.1,2.9l-1,6.4H53.2s-1-6.4-1-6.4ZM64.6,46.4c0-.5,0-.9.5-1.4.7-.7,1.8-1.1,3-1.1h64.8c1.2,0,2.3.4,3,1.1.4.4.6.9.5,1.4l-.3,2h-71.2s-.3-2-.3-2Z"></path><g><path class="cls-2" d="M100.5,138.7c-3.1,0-5.6-2.2-5.6-5v-30.7c0-2.8,2.5-5,5.6-5s5.6,2.2,5.6,5v30.7c0,2.8-2.5,5-5.6,5Z"></path><path class="cls-2" d="M117.8,123.3h-34.5c-3.1,0-5.6-2.2-5.6-5s2.5-5,5.6-5h34.5c3.1,0,5.6,2.2,5.6,5s-2.5,5-5.6,5Z"></path></g><path class="cls-1" d="M150.5,135.7c-1.1-.6-1.9-1.4-2.5-2.3l-2.8,18.7c-.4,2.8-3.8,5-7.6,5H63.4c-3.9,0-7.2-2.2-7.6-5l-3.4-22.6-4.2-28c-.6-1.3-1.5-2.5-2.9-3.3-1.7-1-4.1-1-5.9,0-1.3.7-2.1,1.8-2.6,3.1l7.9,52.3c1.2,7.8,9.2,13.6,18.8,13.6h74.2c9.5,0,17.6-5.9,18.8-13.6l2.8-18.8c-2.4,1.9-5.7,2.8-8.7,1.1h-.1Z"></path><path class="cls-2" d="M162.3,75.4c-1.1-1.1-2.3-2-3.6-2.8h0c-3.1-2.1-7.2-2.6-10.9-3.1H54.1c-1.3,0-2.6.2-3.9.4-1.5.2-2.9.5-4.2,1-1.2.5-2.4,1.1-3.7,1.5h0c-1.3.8-2.5,1.8-3.6,2.8-3.2,3.3-4.7,7.5-4,11.7l1.8,12.1c.8-1.1,1.9-2.1,3.4-2.5,2.3-.7,4.8-.3,6.7,1.1.4.3.8.7,1.2,1.1l-2-13.1c-.3-1.7.6-3,1.4-3.8s1.2-1,2-1.4c1.2-.6,2.7-.9,4.2-.9h94.2c1.5,0,3,.3,4.2.9s1.4.9,2,1.4c.8.8,1.6,2.1,1.4,3.8l-6.6,43.7-.3,1.8c.4,1.6,1.5,3,3.2,3.8,1.6.8,3.5.7,5.1,0,1.1-.5,2-1.2,2.8-2l6.9-45.9c.6-4.2-.8-8.4-4-11.7h0Z"></path><path class="cls-1" d="M42.1,71.6c1.4-.5,2.6-1.1,3.9-1.7,1.2-.5,2.5-.7,3.9-.9,1,0,2.1-.2,3.1-.3l-.8-5.4c-.2-1.3.5-2.3,1.1-2.9.5-.5,1.2-.9,1.9-1.3,1-.4,2.1-.7,3.2-.7h84.2c1.2,0,2.3.2,3.2.7.7.3,1.4.7,1.9,1.3.6.6,1.3,1.6,1.1,2.9l-.8,5.3c3.7.5,7.7.9,10.9,2.8l1-6.8c.6-3.9-.7-7.8-3.8-10.9-2.3-2.3-5.4-4-8.8-4.8l.2-1.3c.5-3.4-.6-6.7-3.2-9.3-2.8-2.9-7-4.5-11.4-4.5h-64.8c-4.5,0-8.6,1.6-11.4,4.5-2.6,2.6-3.7,5.9-3.2,9.3l.2,1.3c-3.4.8-6.5,2.4-8.8,4.8-3,3.1-4.3,6.9-3.8,10.9l1,6.9h0ZM65.1,45c.7-.7,1.8-1.1,3-1.1h64.8c1.2,0,2.3.4,3,1.1.4.4.6.9.5,1.4l-.3,2h-71.2l-.3-2c0-.5,0-.9.5-1.4Z"></path></g></g></g></svg>