<svg xmlns="http://www.w3.org/2000/svg" version="1.1" viewBox="0 0 200 200"><defs><style>
      .cls-1 {
        fill: #0a7ef2;
      }
      .cls-2 {
        fill: #08a6f4;
      }
    </style></defs><g><g id="Layer_1"><g id="Layer_1-2"><g id="Layer_1-2"><g id="Two_USA_Flags"><g id="Right_Flag"><g><path class="cls-2" d="M20.3,160.9c-.9,0-1.8-.4-2.4-1s-1-1.5-1-2.4l-.2-119.6c0-1.9,1.5-3.4,3.4-3.4l159.6-.3h0c.9,0,1.8.4,2.4,1,.6.6,1,1.5,1,2.4l.2,119.6c0,1.9-1.5,3.4-3.4,3.4l-159.6.3h0ZM23.6,41.3v112.8c.1,0,152.9-.3,152.9-.3l-.2-112.8s-152.7.3-152.7.3Z"></path><path class="cls-2" d="M20.3,163.4h0c-1.5,0-3.1-.6-4.2-1.7-1.1-1.1-1.7-2.6-1.7-4.2l-.2-119.6c0-3.3,2.6-5.9,5.9-5.9l159.6-.3c1.5,0,3.1.6,4.2,1.7,1.1,1.1,1.7,2.6,1.7,4.2l.2,119.6c0,3.3-2.6,5.9-5.9,5.9l-159.6.3ZM179.7,36.7l-159.6.3c-.5,0-.9.4-.9.9l.2,119.6c0,.2.1.5.3.6.2.2.4.3.6.3l159.6-.3c.5,0,.9-.4.9-.9l-.2-119.6c0-.2-.1-.5-.3-.6-.2-.2-.4-.3-.6-.3ZM23.6,156.6h-2.5V38.8l157.7-.3.2,117.8h-2.5c-6.2,0-152.8.3-152.9.3ZM26.1,43.8v107.8c18.2,0,129.7-.3,147.9-.3l-.2-107.8-147.7.3Z"></path></g><g><path class="cls-2" d="M111.2,59.1h0c0-1.6,1.3-2.9,2.9-2.9h65.6v5.7h-65.6c-1.6,0-2.9-1.2-2.9-2.8Z"></path><path class="cls-2" d="M182.2,64.4h-68.1c-3,0-5.4-2.3-5.4-5.3s2.4-5.4,5.4-5.4h68.1v10.7ZM114.1,58.7c-.2,0-.4.2-.4.4s.4.3.4.3h63.1v-.7h-63.1Z"></path></g><g><path class="cls-2" d="M111.2,82.8h0c0-1.6,1.3-2.9,2.9-2.9h65.6v5.7h-65.6c-1.6,0-2.9-1.2-2.9-2.8Z"></path><path class="cls-2" d="M182.2,88.1h-68.1c-3,0-5.4-2.3-5.4-5.3s2.4-5.4,5.4-5.4h68.1v10.7ZM114.1,82.4c-.2,0-.4.2-.4.4s.4.3.4.3h63.1v-.7h-63.1Z"></path></g><g><rect class="cls-2" x="20" y="107.8" width="159.6" height="5.8"></rect><path class="cls-2" d="M182.1,116.1H17.5v-10.8h164.6v10.8ZM22.5,111.1h154.6v-.8H22.5v.8Z"></path></g><g><rect class="cls-2" x="20" y="130.3" width="159.6" height="5.8"></rect><path class="cls-2" d="M182.1,138.6H17.5v-10.8h164.6v10.8ZM22.5,133.6h154.6v-.8H22.5v.8Z"></path></g><path class="cls-1" d="M82.8,56.1h0M90.2,49.6c-.2,0-.3.2-.4.4l-2.2,4.5-5,.7h-.2c-.4.2-.6.7-.4,1.1s.2.2.3.3l3.5,3.4-.9,5c0,.3,0,.6.3.8.3.2.6.2.9,0s0,0,0,0l4.5-2.4,4.5,2.3h.8c.3,0,0,0,0,0,.3-.2.4-.5.3-.8l-.9-5,3.6-3.5c.2-.2.3-.6.2-.9,0-.3-.4-.5-.7-.6l-5-.7-2.2-4.5c0-.3-.4-.5-.8-.5h-.4v.4h.2Z"></path><path class="cls-1" d="M82.8,79.9h0M90.3,73.4c-.2,0-.3.2-.4.4l-2.2,4.5-5,.7h-.2c-.4.2-.6.7-.4,1.1s.2.2.3.3l3.5,3.4-.9,5c0,.3,0,.6.3.8.3.2.6.2.9,0s0,0,0,0l4.4-2.4,4.5,2.3h.8c.3,0,0,0,0,0,.3-.2.4-.5.3-.8l-.9-5,3.6-3.5c.2-.2.3-.6.2-.9,0-.3-.4-.5-.7-.6l-5-.7-2.2-4.5c0-.3-.4-.5-.8-.5h-.4l.2.4h0Z"></path><path class="cls-1" d="M59,56.1h0M66.4,49.6c-.2,0-.3.2-.4.4l-2.2,4.5-5,.7h-.2c-.4.2-.6.7-.4,1.1s.2.2.3.3l3.5,3.4-.9,5c0,.3,0,.6.3.8.3.2.6.2.9,0s0,0,0,0l4.4-2.4,4.5,2.3h.8c.3,0,0,0,0,0,.3-.2.4-.5.3-.8l-.9-5,3.6-3.5c.2-.2.3-.6.2-.9,0-.3-.4-.5-.7-.6l-5-.7-2.2-4.5c0-.3-.4-.5-.8-.5h-.4l.2.4h.1Z"></path><path class="cls-1" d="M59,80h0M66.5,73.5c-.2,0-.3.2-.4.4l-2.2,4.5-5,.7h-.2c-.4.2-.6.7-.4,1.1s.2.2.3.3l3.5,3.4-.9,5c0,.3,0,.6.3.8.3.2.6.2.9,0s0,0,0,0l4.5-2.3,4.5,2.3h.8c.3,0,0,0,0,0,.3-.2.4-.5.3-.8l-.9-5,3.6-3.5c.2-.2.3-.6.2-.9,0-.3-.4-.5-.7-.6l-5-.7-2.2-4.5c0-.3-.4-.5-.8-.5h-.4v.3h.2Z"></path><path class="cls-1" d="M35.2,56.2h0M42.6,49.7c-.2,0-.3.2-.4.4l-2.2,4.5-4.9.7h-.2c-.4.2-.6.7-.4,1.1s.2.2.3.3l3.5,3.4-.9,5c0,.3,0,.6.3.8.3.2.6.2.9,0s0,0,0,0l4.5-2.4,4.5,2.3h.8c.3,0,0,0,0,0,.3-.2.4-.5.3-.8l-.9-5,3.6-3.5c.2-.2.3-.6.2-.9,0-.3-.4-.5-.7-.6l-5-.7-2.2-4.5c0-.3-.4-.5-.8-.5h-.4v.4h.1Z"></path><path class="cls-1" d="M35.2,80h0M42.7,73.5c-.2,0-.3.2-.4.4l-2.2,4.5-4.9.7h-.3c-.4.2-.6.7-.4,1.1s.2.2.3.3l3.5,3.4-.9,5c0,.3,0,.6.3.8.3.2.6.2.9,0s0,0,0,0l4.5-2.4,4.5,2.3h.8c.3,0,0,0,0,0,.3-.2.4-.5.3-.8l-.9-5,3.6-3.5c.2-.2.3-.6.2-.9s-.4-.5-.7-.6l-5-.7-2.2-4.5c0-.3-.4-.5-.8-.5h-.4v.4h.2Z"></path></g></g></g></g><g><rect class="cls-1" x="27.2" y="127.8" width="145.7" height="10.8"></rect><path class="cls-1" d="M114.1,88.1h58.7v-10.7h-58.7c-3,0-5.4,2.4-5.4,5.4s2.4,5.3,5.4,5.3Z"></path><path class="cls-1" d="M185.6,37.6c0-1.5-.6-3.1-1.7-4.2-.7-.7-1.7-1.3-2.7-1.5-1.2,0-2.3.3-3.4.7-.9.3-1.9.7-2.5,1.4-.6.7-.8,1.7-1,2.7-.5,2.4-.4,4.9-.4,7.3,0,.1,0,.2,0,.3v7.3s0,0,0,.2v25.7s0,0,0,0v10.7h0v17.2s0,0,0,0v10.8h0v11.7s0,0,0,0v10.8h0v12.7c-17.9,0-126.2.2-146.9.3,0,.7,0,1.3,0,2,0,1.1,0,2.2-.1,3.3-.1,1.7-.4,3.8-1.7,4.9-.6.5-1.3.8-2,1.1-.4.1-.7.3-1.1.4l157.8-.3c3.3,0,5.9-2.6,5.9-5.9l-.2-119.6Z"></path><path class="cls-1" d="M98.4,54.9l-5-.7-2.2-4.5c0-.3-.4-.5-.8-.5h-.4v.4h.2c-.2,0-.3.2-.4.4l-2.2,4.5-5,.7h-.2c-.4.2-.6.7-.4,1.1.2.4.2.2.3.3l3.5,3.4-.9,5c0,.3,0,.6.3.8s.6.2.9,0l4.5-2.4,4.5,2.3h.8c.3-.2.4-.5.3-.8l-.9-5,3.6-3.5c.2-.2.3-.6.2-.9,0-.3-.4-.5-.7-.6Z"></path><path class="cls-1" d="M98.4,78.7l-5-.7-2.2-4.5c0-.3-.4-.5-.8-.5h-.4l.2.4h0c-.2,0-.3.2-.4.4l-2.2,4.5-5,.7h-.2c-.4.2-.6.7-.4,1.1.2.4.2.2.3.3l3.5,3.4-.9,5c0,.3,0,.6.3.8.3.2.6.2.9,0l4.4-2.4,4.5,2.3h.8c.3-.2.4-.5.3-.8l-.9-5,3.6-3.5c.2-.2.3-.6.2-.9,0-.3-.4-.5-.7-.6Z"></path><path class="cls-1" d="M58.5,56.6l3.5,3.4-.9,5c0,.3,0,.6.3.8.3.2.6.2.9,0l4.4-2.4,4.5,2.3h.8c.3-.2.4-.5.3-.8l-.9-5,3.6-3.5c.2-.2.3-.6.2-.9,0-.3-.4-.5-.7-.6l-5-.7-2.2-4.5c0-.3-.4-.5-.8-.5h-.4l.2.4h.1c-.2,0-.3.2-.4.4l-2.2,4.5-5,.7h-.2c-.4.2-.6.7-.4,1.1.2.4.2.2.3.3Z"></path><path class="cls-1" d="M74.7,78.9l-5-.7-2.2-4.5c0-.3-.4-.5-.8-.5h-.4v.3h.2c-.2,0-.3.2-.4.4l-2.2,4.5-5,.7h-.2c-.4.2-.6.7-.4,1.1.2.4.2.2.3.3l3.5,3.4-.9,5c0,.3,0,.6.3.8s.6.2.9,0l4.5-2.3,4.5,2.3h.8c.3-.2.4-.5.3-.8l-.9-5,3.6-3.5c.2-.2.3-.6.2-.9,0-.3-.4-.5-.7-.6Z"></path><path class="cls-1" d="M50.9,55l-5-.7-2.2-4.5c0-.3-.4-.5-.8-.5h-.4v.4h0c-.2,0-.3.2-.4.4l-2.2,4.5-4.9.7h-.2c-.4.2-.6.7-.4,1.1.2.4.2.2.3.3l3.5,3.4-.9,5c0,.3,0,.6.3.8.3.2.6.2.9,0l4.5-2.4,4.5,2.3h.8c.3-.2.4-.5.3-.8l-.9-5,3.6-3.5c.2-.2.3-.6.2-.9,0-.3-.4-.5-.7-.6Z"></path><path class="cls-1" d="M50.9,78.8l-5-.7-2.2-4.5c0-.3-.4-.5-.8-.5h-.4v.4h.2c-.2,0-.3.2-.4.4l-2.2,4.5-4.9.7h-.3c-.4.2-.6.7-.4,1.1.2.4.2.2.3.3l3.5,3.4-.9,5c0,.3,0,.6.3.8s.6.2.9,0l4.5-2.4,4.5,2.3h.8c.3-.2.4-.5.3-.8l-.9-5,3.6-3.5c.2-.2.3-.6.2-.9,0-.3-.4-.5-.7-.6Z"></path></g></g></g></svg>