<svg xmlns="http://www.w3.org/2000/svg" version="1.1" viewBox="0 0 500 500"><defs><style>
      .cls-1 {
        fill: #0a7ef2;
      }
      .cls-2 {
        fill: #08a6f4;
        stroke: #08a6f4;
        stroke-linecap: round;
        stroke-linejoin: round;
        stroke-width: 5px;
      }
    </style></defs><g><g id="Layer_1"><path class="cls-2" d="M128.5,227.5c-.3-3.4-2.6-4.7-7.3-4.7-15.2-.3-81.1-.8-95.5-.8s-6.8,2.1-6.8,5.5,2.6,6,6.8,6c16.5.5,88.7.5,95.8.8,5.5-.3,7.3-2.4,7.1-6.8Z"></path><path class="cls-2" d="M48.1,206c13.6,0,68.3,0,82.2.3,4.2,0,6.8-2.9,6.8-6.8s-2.1-6-6.5-6c-7.3-.3-63.6-1-84.3-.8-1.3,0-4.2,1-5,2.6-4.2,5-.3,10.7,6.8,10.7Z"></path><path class="cls-2" d="M112.2,263.1c5.2,0,8.9-2.1,8.9-6.3s-2.9-6-9.2-6c-11.8,0-46.1-.8-51-.8s-8.1,3.7-7.9,6.5c.3,3.7,3.9,5.8,6.5,6.3,5.5,1.3,50.3.3,52.6.3Z"></path><path class="cls-2" d="M480,273c0-8.4-.3-16.2-.8-24.6-.3-3.9-1-7.3-2.6-11-2.9-7.1-6.5-14.1-9.7-21.2-5-11.5-10.5-23.3-16-34.8-6.8-12.3-16.8-21.7-31.4-23-11.3-1.3-22.8-1-34.3-1.3h-57.6v-34h-14.9c-59.7,0-209.7-.3-219.9-.3h-10.7c-4.4,0-8.4,3.9-8.4,8.4v40.8c0,5.5,2.4,7.9,7.9,7.9s7.3-3.1,7.3-7.3v-34.6h223.8v184.5h-104.2c-1.3,0-2.6.3-3.9,0-.8-.3-2.1-1.3-2.4-2.4-4.4-19.4-25.7-34.6-47.9-30.9-16,2.6-30.1,16-34,30.6-.5,1-1.8,2.1-2.9,2.6-.8-.3-1.6-.3-2.4-.3h-25.9v.3h-.3v-38c0-4.2-3.1-7.3-7.3-7.3s-7.9,2.4-7.9,7.9v44.2c0,4.4,3.9,8.4,8.4,8.4h18.3c6.3.5,12.8.3,19.4.3,4.2,18.8,18.1,30.9,33.8,33.2,22,3.4,41.1-8.1,48.2-29.8.8-3.1,2.1-3.9,4.7-3.9h137.4c2.9,0,3.9,1.3,4.4,3.7,3.4,13.9,11.8,23,25.1,27.7,16,5.5,30.9,3.1,44.2-8.4,7.3-6.3,11-13.9,12.8-22.2,6.5-.5,12-1.3,17.8-1.3,8.6,0,15.4-4.2,21.2-9.7,6.5-6.3,10.2-14.4,10.2-23.8-.5-9.9.3-20.2.3-30.4ZM160.7,357c-13.1,0-24.6-11-25.7-25.7-.8-14.4,11.3-28.8,25.7-27.7,16-.3,26.2,11.5,27.2,23.8,1,18.3-13.3,29.6-27.2,29.6ZM392.1,356.2c-17.8.3-30.4-10.7-30.1-26.2.5-13.6,10.7-26.7,27-26.4,14.4-.3,26.4,11.3,26.4,26.2.3,15.2-12.3,26.2-23.3,26.4ZM464.8,300c0,8.1-3.1,15.7-11,19.4-4.7,2.4-11,2.4-16.2,3.1-4.4,1-6.8-.5-8.4-5.2-3.4-11-10.5-19.6-21.5-24.3-8.1-3.7-16.5-5.5-25.9-3.7-10.2,2.4-18.8,6.3-25.1,14.7-3.9,5.5-6.5,12-10.2,18.8h-19.1v-150.5c20.2.3,65.4,0,84.5.3,3.7,0,7.6.8,11.3,2.4,7.9,2.9,12.3,9.2,15.4,16.8,6.8,15.7,14.7,30.9,21.5,46.6,2.4,5.5,3.9,12,4.2,17.8.8,14.7.5,29.6.5,44Z"></path><path class="cls-1" d="M204.8,319.6s0,0,0-.1c-5-21.4-28.2-36.4-50.7-32.7-16.5,2.7-31.5,16.2-35.9,32.1-.1.2-.3.4-.6.6-.2,1.5-.3,3-.5,4.5-.3,3.7-.5,7.5-.3,11.2,0,1.7.3,3.5.6,5.2.2,0,.4,0,.6,0,4.7,17.7,18.4,30.7,35.3,33.2,2.7.4,5.4.6,8,.6,19.7,0,36-11.8,42.7-31.5,0-.3,0-.7.1-1,.9-7.4,1.7-14.8.8-22.2ZM178.8,346.7c-4.7,4.9-11.4,7.9-18.1,7.9-12.1,0-22.2-10.2-23.2-23.3-.4-6.9,2.5-14,7.6-19,4.1-4,9-6.1,14.1-6.1s.9,0,1.3,0c0,0,.1,0,.2,0,14.9-.2,23.8,10.9,24.7,21.5.5,9.4-3.3,15.6-6.6,19.1Z"></path><path class="cls-1" d="M324.2,175c-5.3-2.4-8.3-9.3-6-14.8,2-4.7,7.3-5.8,11.9-6.6v-30.5c0-1.4-1.1-2.5-2.5-2.5h-14.9c-42.2,0-128.9-.1-180.8-.2-21.2,0-36.1,0-39.1,0h-10.7c-5.6,0-10.5,4.7-10.8,10.3.8,3.4,2.6,6.8,5.8,8.4,1,.5,2.2.8,3.4,1,1.4.2,2.7.4,4.1.5,2.3.1,4.6.2,6.9,0h0c0,0,218.8,0,218.8,0v179.5h-.1c.4,2.8,1.5,5.5,3.5,7.5,2,2,4.8,2.9,7.6,2.4,2.5-.4,4.6-1.7,6.1-3.8,1.3-1.9,2.1-4,2.6-6.2v-143.6c-2-.2-3.9-.7-5.7-1.5Z"></path><path class="cls-1" d="M431.6,316.5c-3.8-12.1-11.7-21.1-22.8-25.9-6.8-3.1-13.2-4.6-19.5-4.6s-5.3.3-8,.8c-12.4,2.9-20.6,7.7-26.6,15.6-2.7,3.8-4.8,8-7,12.5-.7,1.4-1.5,2.9-2.2,4.4-.4,1.5-.7,3.1-.9,4.6-.6,5.4-.2,10.9.7,16.2.3.2.4.7.6,1.5,3.6,14.6,12.6,24.5,26.7,29.5,17.3,5.9,33,3,46.7-8.8,6.5-5.5,10.8-12.5,13.1-21.3.2-3.3.6-6.6.7-9.9,0-4.4-.7-8.7-.8-13-.2-.4-.4-1-.6-1.6ZM392,353.7c-.2,0-.4,0-.6,0-8.4,0-15.8-2.7-20.7-7.7-4.2-4.2-6.4-9.7-6.3-15.9.5-11.7,9-24,24.1-24s.3,0,.4,0c6.3-.1,12.3,2.3,16.8,6.7,4.5,4.5,7,10.5,7,17,.2,13.4-10.8,23.6-20.8,23.9Z"></path><g><path class="cls-1" d="M131,227.3s0,0,0,0c-.4-4.7-3.7-7-9.8-7-9.2-.2-37.1-.4-60.8-.6-2.4.5-4.8,1.4-6.7,3-2.4,2.1-3.4,5.7-2.4,8.7.9,2.4,3.1,4,5.3,5,10,0,20.8.1,30.7.2,16.7,0,31.1.1,34,.2,0,0,0,0,0,0s0,0,.1,0c3.6-.2,6-1.1,7.6-2.8,1.4-1.6,2-3.7,1.9-6.6Z"></path><path class="cls-1" d="M130.7,190.9h0c-4.1-.1-23.1-.5-42.8-.7-.5.2-1,.3-1.5.5-2.6,1.1-4.5,3.3-5.2,6.1-.7,2.8-.2,5.6,1.4,7.9,1.2,1.6,2.8,2.8,4.5,3.7,27.2,0,38.6.1,43.2.2,5.5,0,9.3-3.8,9.3-9.3s-3-8.5-8.9-8.5Z"></path><path class="cls-1" d="M112,248.3c-7.1,0-22.4-.3-34.6-.5-1.1,0-2.1,0-3.1,0-1.7.7-3.3,1.5-4.6,2.7-1.9,1.6-2.7,3.8-2.6,6.2.1,2.4,1.1,4.4,2.9,6,1.8,1.6,3.9,2.6,6.2,3.3.8,0,1.5,0,2.3,0,7.7,0,17.7-.1,30.3-.3,1.9,0,3.2,0,3.5,0,7,0,11.4-3.4,11.4-8.8,0-8.5-8.2-8.5-11.7-8.5Z"></path></g></g></g></svg>