<svg xmlns="http://www.w3.org/2000/svg" version="1.1" viewBox="0 0 200 200"><defs><style>
      .cls-1 {
        fill: #f9679b;
      }
      .cls-2 {
        fill: #e02889;
      }
    </style></defs><g><g id="Layer_1"><g><path class="cls-2" d="M84,29.7c14,0,28,0,42,0,3.1.7,5.9,2,8.3,4.3,8.9,8.9,17.8,17.8,26.7,26.7,2.9,3,4.4,6.5,4.4,10.7,0,24.8,0,33.9,0,58.7,0,8.6-6,14.5-14.6,14.5-7,0-14,0-21,0-.5,0-1,0-1.7,0,0,1.4,0,2.6,0,3.9,0,8.8-6,14.8-14.7,14.8-21.3,0-42.6,0-64,0-8.6,0-14.6-6-14.6-14.6,0-33.8,0-52,0-85.8,0-8.6,6-14.6,14.6-14.6,7,0,14.1,0,21.1,0,.5,0,1,0,1.6,0,0-1.8,0-3.3,0-4.9.2-5.1,2.4-9.2,6.9-11.8,1.5-.9,3.4-1.4,5.1-2ZM86,57.7h-1.6c-11.7,0-23.3,0-35,0-3.6,0-5.4,1.8-5.4,5.4,0,33.7,0,51.8,0,85.5,0,3.6,1.8,5.4,5.5,5.4,21.2,0,42.4,0,63.7,0,3.7,0,5.5-1.8,5.5-5.4,0-24.1,0-32.6,0-56.6v-1.6c-5.5,0-10.8,0-16.1,0-1.5,0-2.9,0-4.4-.2-7.3-1.1-12.1-6.8-12.2-14.2,0-6,0-12,0-18.2ZM155.9,71.7h-1.7c-5.4,0-10.9,0-16.3,0-8.6,0-14.6-6-14.6-14.6,0-5.5,0-11,0-16.5v-1.6c-3.9,0-7.6,0-11.3,0-8.5,0-17.1,0-25.6,0-2.6,0-4.6,1.4-4.9,3.7-.3,1.8,0,3.7,0,5.7,1.4,0,2.7,0,4,0,4.9-.2,8.8,1.6,12.2,5.1,8.4,8.5,16.9,17,25.4,25.4,3.3,3.3,4.9,7.1,4.9,11.7,0,19.5,0,23.4,0,42.9v1.8h1.7c6.8,0,13.7,0,20.5,0,4,0,5.7-1.7,5.7-5.6,0-24,0-32.4,0-56.3v-1.7ZM132.7,46.1c0,4-.1,8.2,0,12.3,0,2.2,2.2,3.8,4.6,3.9,1.9,0,3.8,0,5.7,0,2,0,4,0,5.9,0-5.5-5.5-10.8-10.8-16.2-16.2ZM111.3,81c-5.3-5.3-10.7-10.7-16-16,0,3.7,0,7.7,0,11.6,0,2.2,1.8,4.2,4,4.3,4.1.1,8.2,0,12,0Z"></path><g><path class="cls-1" d="M60.3,102.7h0c0-4.2,2.8-7.6,6.9-7.6s6.9,3.4,6.9,7.4h0c0,4.1-2.8,7.6-6.9,7.6s-6.9-3.4-6.9-7.4ZM70.4,102.7h0c0-2.4-1.3-4.3-3.2-4.3s-3.1,1.9-3.1,4.2h0c0,2.5,1.3,4.3,3.2,4.3s3.1-1.9,3.1-4.2ZM69.3,122.2l19.2-26.2c.3-.5.8-.8,1.4-.8.9,0,1.7.7,1.7,1.6s-.2.8-.4,1.1l-19.2,26.2c-.3.5-.9.8-1.5.8-.9,0-1.6-.7-1.6-1.6s.2-.8.4-1.1ZM86.8,117.7h0c0-4.2,2.8-7.6,6.9-7.6s6.9,3.4,6.9,7.4h0c0,4.1-2.8,7.6-6.9,7.6s-6.9-3.4-6.9-7.4ZM96.9,117.7h0c0-2.4-1.3-4.3-3.2-4.3s-3.1,1.9-3.1,4.2h0c0,2.5,1.3,4.3,3.2,4.3s3.1-1.9,3.1-4.2Z"></path><path class="cls-1" d="M93.7,126.9c-4.9,0-8.6-3.9-8.6-9.2h0c0-5.4,3.8-9.4,8.7-9.4s8.6,3.9,8.6,9.2-3.8,9.4-8.7,9.4ZM89.4,114.5c-.5.9-.8,2-.8,3.1h0c0,1.5.4,2.9,1.3,4-.7-1-1.2-2.4-1.2-4s.2-2.2.6-3.1ZM97.6,113.7c.7,1,1.1,2.4,1.1,3.9h0c0,1.1-.2,2-.5,2.7.4-.9.6-1.8.6-2.7,0-1.4-.4-2.8-1.3-3.9ZM93.7,115.1c-1,0-1.3,1.4-1.3,2.4,0,1.4.6,2.6,1.4,2.6s1.3-1.4,1.3-2.4h0c0-1.4-.7-2.6-1.4-2.6ZM70.6,126.7c-1.9,0-3.4-1.5-3.4-3.4s.2-1.5.7-2.1c0,0,0,0,0,0l19.1-26.2c.6-1,1.7-1.5,2.9-1.5,1.9,0,3.5,1.5,3.5,3.4s-.2,1.5-.7,2.1l-19.2,26.2c-.6.9-1.7,1.5-2.9,1.5ZM67.2,111.9c-4.9,0-8.6-3.9-8.6-9.2h0c0-5.4,3.8-9.4,8.7-9.4s8.6,3.9,8.6,9.2-3.8,9.4-8.7,9.4ZM62.9,99.5c-.5.9-.8,2-.8,3.1h0c0,1.5.4,2.9,1.3,4-.7-1-1.2-2.4-1.2-4s.2-2.2.6-3.1ZM71.1,98.7c.7,1,1.1,2.4,1.1,3.9h0c0,1.2-.2,2.2-.6,3,.5-.9.7-2,.7-3s-.4-2.8-1.3-3.9ZM67.2,100.1c-1,0-1.3,1.4-1.3,2.4,0,1.4.6,2.6,1.4,2.6s1.3-1.4,1.3-2.4h0c0-1.4-.7-2.6-1.4-2.6Z"></path></g><g><path class="cls-1" d="M128,135.3h0v-1.9c0-.1,0-.3,0-.5,0-19,0-23,0-42.4,0-1.5-.2-2.9-.5-4.3,0,.8-.2,1.6-.5,2.3-1.4,3.1-5.4,3-8.3,2.8v.5c0,24.1,0,32.6,0,56.6,0,3.5-1.7,5.3-5.1,5.4,1,.5,1.8,1.2,2.5,2,1,1.3,1.5,3.2,1,4.8-.3,1-.9,1.7-1.6,2.4,7.5-.9,12.5-6.6,12.6-14.6,0-1.2,0-2.5,0-3.9h0v-9.3Z"></path><path class="cls-1" d="M110.5,154c-20.3,0-40.7,0-61,0-3.7,0-5.5-1.8-5.5-5.4,0-32.2,0-50.2,0-81.2-1.1,1.3-2.6,2.1-4.5,2.2-1.9,0-3.7-.9-4.8-2.3,0,31.1,0,49.1,0,81.5,0,8.5,6,14.6,14.6,14.6,21.3,0,42.6,0,64,0,0,0,0,0,0,0,1.3-.6,2.4-1.4,2.8-2.8.4-1.5-.1-3.2-1.2-4.3-1.2-1.2-2.8-1.8-4.4-2.2Z"></path><path class="cls-2" d="M125.4,81.8c0-.2-.2-.3-.2-.5-.6-.8-1.3-1.7-2.1-2.4-7.8-7.7-15.5-15.4-23.2-23.2-2-.6-4.1-.7-5.7.8-2.7,2.7-1,6.2,1.1,8.7,0,0,0-.1,0-.2,5.3,5.3,10.7,10.7,16,16-3.8,0-7.9.1-12,0-2.2,0-4-2.1-4-4.3,0-3.4,0-6.7,0-10-1.5-1.6-3-3.5-3.4-5.7-.7-3.6,2.2-6.9,5.9-6.7.3,0,.6,0,.8,0-.3-.3-.6-.6-.9-.9-3.4-3.5-7.3-5.3-12.2-5.1-1.3,0-2.6,0-4,0,0,0,0,0,0,0h-9.4s0,0,0,0h-1.6c-7,0-14.1,0-21.1,0-8.5,0-14.6,6-14.6,14.6,0,.8,0,1.5,0,2.2.7,2.1,2.8,3.6,5.2,3.4,1.8-.2,3.1-1.3,4.1-2.8,0-.9,0-1.8,0-2.8,0-3.6,1.8-5.4,5.4-5.4,11.7,0,23.3,0,35,0h1.6c0,6.2,0,12.2,0,18.2,0,7.4,4.8,13.1,12.2,14.2,1.4.2,2.9.1,4.4.2,5.3,0,10.6,0,16.1,0h0c1.6.2,3.3.3,4.9-.2,1.4-.4,2.5-1.3,2.8-2.8.5-1.9-.1-3.9-.9-5.6Z"></path><path class="cls-2" d="M123,35.2c.6-1.6,1.9-2.8,3.5-3.4,1.1-.5,2.3-.7,3.5-.7-1.3-.6-2.6-1-4-1.4h-42c-1.7.7-3.5,1.1-5.1,2-4.4,2.6-6.7,6.6-6.9,11.8,0,1.2,0,2.5,0,3.8h9.4c0-1.6-.1-3.1,0-4.6.3-2.3,2.3-3.7,4.9-3.7,8.5,0,17.1,0,25.6,0h10.2c.2-1.3.3-2.6.7-3.9Z"></path><path class="cls-1" d="M154.2,71.7h1.7v1.7c0,14.6,0,23.4,0,33.5.5-.7,1.1-1.3,2-1.7,1.7-.8,3.6-.9,5.3,0,.8.4,1.5,1.1,2.1,1.8,0-10.8,0-20.2,0-35.5,0-4.2-1.5-7.8-4.4-10.7-1.4-1.4-2.7-2.7-4.1-4.1.5,1.7.4,3.4-.9,4.8-1.9,1.9-4.6,1.5-7,.9,0,0,0,0,.1.1-1.9,0-3.9,0-5.9,0-1.9,0-3.8,0-5.7,0-2.3,0-4.5-1.7-4.6-3.9-.2-4.1,0-8.3,0-12.3,4.9,4.9,9.8,9.8,14.8,14.8,1.3.3,2.6.7,4,.8,1.6.1,3.2-.2,4.1-1.6.7-1.1.5-2.4.1-3.6-.2-.6-.4-1.1-.7-1.7-6.9-6.9-13.9-13.9-20.8-20.8-.6-.6-1.2-1.1-1.8-1.5-1.9-.6-3.9-.6-5.7.3-1.4.7-2.5,1.8-2.9,3.3-.3,1-.4,2-.5,3h0v1.6c0,5.5,0,11,0,16.5,0,8.5,6,14.6,14.6,14.6,5.4,0,10.9,0,16.3,0Z"></path><path class="cls-2" d="M161.9,105.7c-1.5-.4-3.3,0-4.5,1-.7.7-1.2,1.5-1.5,2.4,0,5.9,0,12.3,0,20.6,0,4-1.7,5.6-5.7,5.6-6.8,0-13.7,0-20.5,0h-.7v9.3h.7c7,0,14,0,21,0,8.6,0,14.6-6,14.6-14.5,0-8.5,0-15.1,0-21.2-.6-1.5-1.8-2.8-3.4-3.3Z"></path></g></g></g></g></svg>