<svg xmlns="http://www.w3.org/2000/svg" version="1.1" viewBox="0 0 200 200"><defs><style>
      .cls-1 {
        fill: #f9679b;
      }
      .cls-2 {
        fill: #e02889;
      }
    </style></defs><g><g id="Layer_1"><path class="cls-1" d="M171.2,103.2s0,0,0,0c0-.3,0-.5,0-.8,0,0,0-.1,0-.2,0,0,0,0,0,0-.4-2.3-2.1-4.2-4.5-4.4-1.3-.1-2.8.2-4,.8-18.6,8.4-37.3,16.9-55.9,25.4-1.1.5-2.1.6-3.3.2-21.5-6.7-43.1-13.3-64.7-19.9v-10.4c21.3,6.5,42.6,13.1,63.9,19.7,2.2.7,4.1.6,6.2-.4,8.3-3.9,16.5-7.7,24.8-11.5,6-2.7,12.1-5.2,17.9-8.2,7.1-3.6,12-9.3,13.1-17.4.7-5,.7-10.1.9-15.1.1-3.4-1.5-5.3-4.9-6.1-15.9-3.9-31.7-7.8-47.6-11.7-7.6-1.9-15.1-3.8-22.7-5.5-3.5-.8-6.4,1.4-6.7,5-.2,2.5-.3,5-.5,7.5-.6,6.7-3.8,11.7-10.2,14.3-13.2,5.5-26.3,11.1-39.4,16.6-2.3,1-4.1,2.2-4.9,4.7v1.9s0,0,0,0c0,0,0,0,0,0v19.9s0,0,0,0v2.2s0,0,0,0v19.4s0,0,0,0c0,0,0,0,0,0v2.2c.7,2.3,2.2,3.7,4.5,4.4,23.2,7.1,46.5,14.3,69.7,21.4,2,.6,3.8.5,5.6-.4,19.5-8.9,39-17.8,58.5-26.6.5-.2,1.1-.5,1.6-.8,1.7-1.2,2.6-2.8,2.4-4.9,0-.2,0-.3,0-.5v-21ZM52.2,85.1c8.6-3.6,17.2-7.2,25.7-10.9,5.8-2.6,10.6-6.5,13.4-12.4,1.5-3.2,2.4-6.6,2.9-10.1,0-.6.2-1.3.3-2,20.1,5,40.1,9.9,60.1,14.8,0,3.9,0,7.6-1,11.3-.8,3.1-2.7,5.6-5.5,7-4.3,2.2-8.7,4.3-13.1,6.3-9.5,4.4-19,8.7-28.5,13.1-.9.4-1.7.5-2.6.2-17.3-5.3-34.6-10.7-51.9-16-.4-.1-.8-.3-1.5-.5.8-.3,1.3-.6,1.8-.8ZM106.2,146.1c-.7.3-1.6.4-2.3.2-11.6-3.5-23.1-7.1-34.6-10.6-10.2-3.1-20.3-6.3-30.5-9.4v-10.4c21.3,6.5,42.6,13.1,63.9,19.7,2.2.7,4.1.5,6.2-.4,17.4-8,34.9-15.9,52.3-23.8v9.9c-18.3,8.3-36.6,16.7-55,25Z"></path><path class="cls-2" d="M157.4,56c-1,.7-1.7,1.8-2.1,3-.7,1.7-.9,3.6-1,5.5,0,0,.2,0,.3,0,0,3.9,0,7.6-1,11.3-.8,3.1-2.7,5.6-5.5,7-4.3,2.2-8.7,4.3-13.1,6.3-9.5,4.4-19,8.7-28.5,13.1-.2,0-.4.2-.6.2-.8.6-1.6,1.1-2.4,1.6-.8.5-1.6,1.1-2,2.1-.7,1.8-.4,4.2.8,5.7.9,1.1,2.2,1.8,3.6,2.2,1,0,2-.3,3.1-.8,8.3-3.9,16.5-7.7,24.8-11.5,6-2.7,12.1-5.2,17.9-8.2,7.1-3.6,12-9.3,13.1-17.4.7-5,.7-10.1.9-15.1.1-3.3-1.4-5.1-4.5-6-1.3,0-2.7.3-3.8,1.1Z"></path><path class="cls-1" d="M113.1,43c-7.6-1.9-15.1-3.8-22.7-5.5-3.5-.8-6.4,1.4-6.7,5-.2,2.5-.3,5-.5,7.5-.6,6.7-3.8,11.7-10.2,14.3-12.8,5.3-25.5,10.8-38.2,16.1,5.7,1.8,11.3,3.6,17.2,4.7,0,0,0,0,.1,0,8.6-3.6,17.2-7.2,25.7-10.9,5.8-2.6,10.6-6.5,13.4-12.4,1.5-3.2,2.4-6.6,2.9-10.1,0-.6.2-1.3.3-2,19.7,4.9,39.2,9.7,58.8,14.5,0-.4,0-.7,0-1.1.2-2.3.7-4.7,2-6.5.9-1.2,2-1.9,3.3-2.3-15.2-3.7-30.4-7.5-45.6-11.2Z"></path><path class="cls-2" d="M33.1,135.9c.9-.2,1.8-.4,2.7-.8.9-.4,1.8-.9,2.3-1.8.5-.8.8-1.8.8-2.7.1-1.5,0-3-.1-4.5,0,0,0,0,0,0v-8.5c-.3-.2-.6-.5-.9-.8-2.3-2.1-3.9-4.9-3.5-8.1.3-2.6,1.8-5,4.4-5.5v-9.5c21.3,6.5,42.5,13,63.8,19.6-.6-.5-1.2-1.1-1.6-1.8-1.1-1.8-1.3-4.6-.3-6.5.7-1.3,2-2,3.3-2.7,0,0-.1,0-.2,0-17.3-5.3-34.6-10.7-51.9-16-.4-.1-.8-.3-1.5-.5,0,0,0,0,0,0-5.8-1.2-11.4-3-17-4.8-2.2.9-3.9,2.2-4.7,4.6v1.9s0,0,0,0c0,0,0,0,0,0v19.9s0,0,0,0v2.2s0,0,0,0v19.4s0,0,0,0c0,0,0,0,0,0v2.2c.7,2.2,2.1,3.6,4.3,4.4Z"></path><path class="cls-1" d="M39.9,126.5c.1,1.9.3,3.7-.1,5.5-.5,2.4-2.5,3.8-4.7,4.5,22.2,6.8,44.3,13.6,66.5,20.4-.6-1-1-2.2-1.1-3.3-.3-1.8-.2-3.6.9-5.1.7-.9,1.6-1.7,2.5-2.4-11.5-3.5-23-7.1-34.5-10.6-9.8-3-19.6-6-29.4-9.1Z"></path><path class="cls-1" d="M104,135.8c-.9-.5-1.7-1.2-2.2-2.2-1-1.7-1-4-.3-5.8.5-1.3,1.4-2.5,2.4-3.4-.1,0-.3,0-.4,0-21.5-6.7-43.1-13.3-64.6-19.9-3.1.6-4.1,4.7-3.3,7.5.5,1.8,1.8,3.4,3.2,4.6v-.7c21.3,6.5,42.6,13.1,63.9,19.7.4.1.9.2,1.3.3Z"></path><path class="cls-2" d="M171.2,103.2s0,0,0,0c0-.3,0-.5,0-.8,0,0,0-.1,0-.2,0,0,0,0,0,0-.4-2.3-2.1-4.2-4.5-4.4-1.3-.1-2.8.2-4,.8-18.6,8.4-37.3,16.9-55.9,25.4-.4.2-.8.3-1.2.4-1.7,1-3,2.6-3.4,4.5-.4,1.6,0,3.5,1,4.9.9,1.1,2.2,1.7,3.5,1.9,0,0,0,0,.1,0,.7-.1,1.4-.4,2.1-.7,17.4-8,34.9-15.9,52.3-23.8v9.9c-18.3,8.3-36.6,16.7-55,25-.3.1-.6.2-.9.2-1.3.9-2.7,1.8-3.5,3.2-.9,1.5-.7,3.3-.3,4.9.3,1.4,1,2.5,2,3.1,1.8.4,3.4.3,5.1-.5,19.5-8.9,39-17.8,58.5-26.6.5-.2,1.1-.5,1.6-.8,1.7-1.2,2.6-2.8,2.4-4.9,0-.2,0-.3,0-.5v-21Z"></path></g></g></svg>