<svg xmlns="http://www.w3.org/2000/svg" version="1.1" viewBox="0 0 200 200"><defs><style>
      .cls-1 {
        fill: #0a7ef2;
      }
      .cls-2 {
        fill: #08a6f4;
      }
    </style></defs><g><g id="Layer_1"><g id="Layer_1-2"><g id="Layer_1-2"><path class="cls-2" d="M72,146.6c-5.6,0-11.1.1-16.6-1.4-18.6-5.2-30.7-22.9-28.5-42.2,2-18.1,16.2-32.5,34.2-34.6,1,0,1.2-.6,1.5-1.4,5.1-15.7,15.7-25.2,31.9-27.9,19.2-3.2,37.8,8.9,43.3,27.8.3,1.1.8,1.5,1.9,1.7,17.8,2.7,31.1,16.3,33.4,34.1,2.8,21.5-13.2,41.7-34.8,43.6-6.2.6-12.6.3-18.8.3s-4.6-2.4-4.6-5,2.2-4.7,4.9-4.7h14.7c13.8,0,25.4-9.3,28.7-22.7,4.3-18-9.4-35.8-27.9-36.1-3.8,0-5.6-1.6-6.2-5.3-2.5-13.9-14.6-24.1-28.8-24.1s-26.4,10-29,23.9c-.8,4.3-2.2,5.5-6.6,5.6-14.5.3-27.1,12.2-28.3,26.6-1.2,15.2,8.8,28.9,23.4,31.5,3.1.6,6.3.6,9.4.6,3.6.1,49.1,0,52.8,0s5.3,2.1,5.3,4.9-2.2,4.9-5.3,4.9h-50Z"></path></g></g><path class="cls-2" d="M91.3,106.9c.3-.4.5-.6.7-.9,7.7-7.7,15.4-15.4,23.1-23.1,2.4-2.4,5.5-2.9,8.2-1.3,3.3,1.9,4.2,6.5,1.8,9.5-.3.4-.6.7-1,1-9.3,9.4-18.7,18.7-28,28.1-2.4,2.4-5.4,2.9-8.2,1.3-.5-.3-1-.7-1.4-1.1-4.8-4.7-9.6-9.5-14.3-14.2-2.6-2.7-2.8-6.3-.5-9.1,2.1-2.6,6.2-3,8.8-.9,1.2,1,2.4,2.2,3.5,3.4,2.4,2.4,4.8,4.8,7.3,7.4Z"></path><g id="Layer_1-3"><g id="Layer_1-2-2"><g><path class="cls-1" d="M111.5,146.7c-1.6-1.4-2.8-3.5-2.7-5.6,0-1.9,1.1-3.2,2.5-4.1-14.7,0-39.5,0-42.1,0-3.1,0-6.3,0-9.4-.6-14.6-2.6-24.6-16.3-23.4-31.5,1.2-14.4,13.8-26.3,28.3-26.6.7,0,1.3,0,1.8-.1-1.8-.4-3.4-1.6-4.3-3.2-.7-1.3-1-2.7-1.1-4.1,0-.8,0-1.6,0-2.3,0,0,0,0,0,0-18,2.1-32.2,16.5-34.2,34.6-2.2,19.3,9.9,37,28.5,42.2,5.5,1.5,11,1.4,16.6,1.4h0c0,.1,39.5.1,39.5.1Z"></path><path class="cls-2" d="M173.1,102.7c-2.3-17.8-15.6-31.4-33.4-34.1-1.1-.2-1.6-.6-1.9-1.7-5.5-18.9-24.1-31-43.3-27.8-16.2,2.7-26.8,12.2-31.9,27.9-.1.3-.2.7-.4.9-.2,1.2-.2,2.6,0,3.8.2,1.5.9,3,2,4.1,1.2,1.1,3,1.7,4.6,1.4.2,0,.3,0,.5-.1,1.1-.8,1.7-2.2,2.1-4.5,2.6-13.9,14.8-23.9,29-23.9s26.3,10.2,28.8,24.1c.6,3.7,2.4,5.3,6.2,5.3,18.5.3,32.2,18.1,27.9,36.1-3.3,13.4-14.9,22.7-28.7,22.7h-14.7s0,0,0,0c-1.5,0-3.6,0-6.2,0-1.2.4-2.3.9-3,1.9-1.3,1.7-.8,4,.3,5.7.6.9,1.4,1.6,2.3,2.2h8.8c.3,0,.6,0,.9,0,5.1,0,10.4.2,15.4-.3,21.6-1.9,37.6-22.1,34.8-43.6Z"></path></g></g></g><path class="cls-2" d="M96.8,119.5c.5-.7,1-1.5,1.2-2.4.4-1.5,0-3.2-.9-4.5-1.8-2.7-5-4-6.8-6.7-2.2-2.2-4.2-4.3-6.3-6.3-1.1-1.1-2.3-2.3-3.5-3.4-2.6-2.1-6.7-1.7-8.8.9-2.3,2.8-2.1,6.4.5,9.1,4.8,4.8,9.5,9.5,14.3,14.2.4.4.9.8,1.4,1.1,2.8,1.6,5.8,1.1,8.2-1.3.2-.2.4-.4.7-.7Z"></path><path class="cls-1" d="M123.3,81.6c-2.8-1.6-5.8-1.1-8.2,1.3-7.7,7.7-15.4,15.4-23.1,23.1,0,0-.1.1-.2.2,1,1.2,2.3,2.2,3.5,3.2,1.3,1.1,2.5,2.2,3.1,3.8.5,1.3.8,2.7.5,4.1,8.4-8.4,16.8-16.8,25.2-25.3.3-.3.6-.7,1-1,2.4-2.9,1.4-7.6-1.8-9.5Z"></path></g></g></svg>