<svg xmlns="http://www.w3.org/2000/svg" version="1.1" viewBox="0 0 200 200"><defs><style>
      .cls-1 {
        fill: #f9679b;
      }
      .cls-2 {
        fill: #e02889;
      }
    </style></defs><g><g id="Layer_1"><path class="cls-1" d="M172.5,85.7c0-4.1-1.6-7.1-5.2-9.2-16-9.5-42.2-25.3-58.2-34.8-3.9-2.3-7.3-2-10.8.8-7.6,6.2-15.3,12.3-22.9,18.5-13.5,10.9-27.1,21.8-40.6,32.7-2.3,1.8-3.4,4.2-3.4,7.1,0,2.5,0,5,0,7.5,0,2.3,0,4.6,0,6.8-.1,4,1.6,6.8,5,8.8,15.3,9.1,40.7,24.4,55.9,33.5,5.2,3.1,10.3,2.8,15.1-1,7.3-5.9,14.5-11.7,21.8-17.6,13.2-10.6,26.4-21.3,39.6-31.9,2.6-2.1,3.9-4.7,3.8-8,0-4.5,0-9,0-13.4ZM101.3,50.7c1.8-1.4,4.2-1.6,6.2-.4l54.2,31.9-59.9,47.4c-1.6,1.3-3.9,1.4-5.6.4l-54.3-32.3,59.5-47ZM163.9,102c-11.8,9.5-23.5,18.9-35.3,28.4-8.6,6.9-17.2,13.8-25.8,20.8-2.5,2-4.2,2.2-7,.5-15.2-9.2-40.6-24.5-55.9-33.6-1.2-.7-1.7-1.5-1.6-2.9,0-3.5,0-7,0-10.8,3.6,2.2,17.1,10.3,20.5,12.3,11.9,7.1,23.7,14.3,35.6,21.4,3.8,2.3,7.2,2,10.7-.7,19.5-15.7,39-31.4,58.5-47.1.4-.4.9-.7,1.6-1.3v3.3c0,2.2,0,4.5,0,6.7,0,1.3-.4,2.3-1.5,3.1Z"></path><path class="cls-1" d="M47.4,106.8c-1,0-2-.4-2.7-1.3-1.2-1.5-1-3.7.5-4.9l63.8-51.2c1.5-1.2,3.7-1,4.9.5s1,3.7-.5,4.9l-63.8,51.2c-.6.5-1.4.8-2.2.8Z"></path><path class="cls-1" d="M111.9,105.4c-.6,0-1.2-.2-1.8-.5l-20.9-12.4c-1-.6-1.6-1.6-1.7-2.8,0-1.1.4-2.3,1.3-3l22.7-18c1.1-.9,2.7-1,3.9-.3l20.9,12.3c1,.6,1.6,1.6,1.7,2.8,0,1.2-.4,2.3-1.3,3l-22.8,18c-.6.5-1.4.8-2.2.8ZM97.3,89.1l14.4,8.6,16.9-13.4-14.4-8.5-16.8,13.3Z"></path><g><path class="cls-2" d="M172.5,85.7c0-1.8-.3-3.4-1-4.8,0,.8,0,1.6-.1,2.4-.4,1.5-1.4,2.8-2.6,3.8-1.2,1-2,2.4-3.4,3.1v2c0,2.2,0,4.5,0,6.7,0,1.3-.4,2.3-1.5,3.1-11.8,9.5-23.5,18.9-35.3,28.4-8.6,6.9-17.2,13.8-25.8,20.8-2.5,2-4.2,2.2-7,.5-8-4.8-18.9-11.4-29.6-17.9.1.2.2.3.3.5.7,1.4.6,3.2-.4,4.5-.8.9-1.9,1.2-3.1,1.3,10.6,6.4,21.3,12.8,29.2,17.6,5.2,3.1,10.3,2.8,15.1-1,7.3-5.9,14.5-11.7,21.8-17.6,13.2-10.6,26.4-21.3,39.6-31.9,2.6-2.1,3.9-4.7,3.8-8,0-4.5,0-9,0-13.4Z"></path><path class="cls-1" d="M170.5,81.2c0-.9-.4-1.9-.9-2.8-.7-.6-1.4-1.2-2.3-1.8-16-9.5-42.2-25.3-58.2-34.8-.4-.2-.8-.4-1.2-.6.3.3.5.7.6,1.2,1,3.3-1.4,5.4-3.9,7.2,1,0,1.9.2,2.8.7h.1c.2.1.4.2.6.3.7.3,1.4.8,2,1.2,1.4.8,2.8,1.6,4.1,2.5,0,0,0,0,0,0l47.2,27.8-59.9,47.4c-.3.2-.7.4-1,.6,0,0,0,0,0,0-1.2,1.2-2.5,2.4-2.9,4.1-.3,1.3-.3,2.8.5,3.9.4.6,1,1,1.6,1.3,1.8-.1,3.5-.9,5.3-2.3,19.5-15.7,39-31.4,58.5-47.1.4-.4.9-.7,1.6-1.3h0c.6-.3,1-.8,1.5-1.3.6-.7,1.3-1.2,1.9-1.8,1.2-1.2,2-2.8,1.8-4.5Z"></path><path class="cls-1" d="M109.9,52.7c-.6-.4-1.2-.8-1.9-1.1-.4-.2-.8-.3-1.2-.4l-60,48.2c1,.6,2,1.3,3,1.9,1.1.6,2.4,1.2,3.4,1.9l60.1-48.3c-1.1-.8-2.4-1.4-3.5-2.1Z"></path><path class="cls-1" d="M97,133.6c.4-1.1,1.1-2.1,1.9-3-.9,0-1.9-.2-2.8-.7l-43.9-26.1h.2c-1-.9-2.2-1.3-3.2-1.9-1.1-.6-2.1-1.4-3.2-2h-.1c0,.1-4-2.3-4-2.3l59.5-47c0,0,.2-.1.3-.2,0,0,0,0,0-.1,1.7-1.3,3.7-2.2,5.1-3.8,1-1.2,1.5-3,.7-4.5-.6-1.1-1.8-1.5-2.9-1.7-.2,0-.4,0-.7,0-1.8.1-3.6.9-5.4,2.4-7.6,6.2-15.3,12.3-22.9,18.5-13.5,10.9-27.1,21.8-40.6,32.7-2.3,1.8-3.4,4.2-3.4,7.1,0,2.5,0,5,0,7.5,0,2.3,0,4.6,0,6.8-.1,4,1.6,6.8,5,8.8,6.8,4.1,15.7,9.4,24.7,14.8.5,0,1,.2,1.4.2,1,0,2.2-.1,2.9-1,.9-1.2.6-2.8-.2-4-.5-.7-1.1-1.3-1.8-1.9-8.6-5.2-16.9-10.2-23.4-14.1-1.2-.7-1.7-1.5-1.6-2.9,0-3.5,0-7,0-10.8,3.6,2.2,17.1,10.3,20.5,12.3,11.9,7.1,23.7,14.3,35.6,21.4,1.2.7,2.4,1.2,3.5,1.4-.3-.3-.6-.7-.8-1.1-.7-1.4-.7-3.2-.2-4.7Z"></path><path class="cls-2" d="M93.4,85.5c.3,1.6,1.9,2.2,3.4,2.2,1.2,0,2.3-.5,3.4-.9l13.8-10.9,13.5,8c0,0,0-.1.2-.2,1.3-.8,2.4-1.9,3.6-2.8,1-.7,2.3-.9,3.5-.8l-19.3-11.4c-1.2-.7-2.8-.6-3.9.3l-16.6,13.1c-1,.9-1.9,2.2-1.7,3.6Z"></path><path class="cls-1" d="M137.4,81.7c-.8-.4-1.6-.7-2.5-.8-1.5-.2-2.6.3-3.8,1.3-.9.7-1.7,1.5-2.7,2.1h0s-16.9,13.4-16.9,13.4l-14.4-8.6.8-.6c-.7.2-1.5.2-2.2.2-1.7-.2-3.2-1.4-3.4-3.2,0-.5,0-1.1.2-1.6l-3.7,2.9c-.9.7-1.4,1.8-1.3,3,0,1.1.7,2.2,1.7,2.8l20.9,12.4c.6.3,1.2.5,1.8.5s1.5-.3,2.2-.8l22.8-18c.9-.7,1.4-1.8,1.3-3,0-.7-.3-1.4-.8-2Z"></path></g></g></g></svg>