<svg xmlns="http://www.w3.org/2000/svg" version="1.1" viewBox="0 0 200 200"><defs><style>
      .cls-1 {
        fill: #0a7ef2;
      }
      .cls-2 {
        fill: #08a6f4;
      }
    </style></defs><g><g id="Layer_1"><g><path class="cls-2" d="M164.9,72.7c0,8,0,16.1,0,24.1,0,8.9-6,14.9-14.9,14.9-10.5,0-21.1,0-31.6,0-8.6,0-14.7-6.1-14.7-14.7,0-16.3,0-32.6,0-48.8,0-8.6,6.1-14.7,14.7-14.7,10.6,0,21.2,0,31.8,0,8.6,0,14.7,6.1,14.7,14.7,0,8.2,0,16.4,0,24.6ZM155.5,72.6c0-8.1,0-16.2,0-24.3,0-3.7-1.8-5.5-5.5-5.5-10.5,0-21,0-31.5,0-3.6,0-5.4,1.8-5.4,5.4,0,16.2,0,32.4,0,48.7,0,3.6,1.8,5.4,5.5,5.4,10.5,0,21,0,31.5,0,3.6,0,5.4-1.8,5.4-5.4,0-8.1,0-16.2,0-24.3Z"></path><path class="cls-2" d="M94.3,126c0,8.1,0,16.3,0,24.4,0,8.8-6,14.8-14.9,14.8-10.5,0-21,0-31.5,0-8.7,0-14.8-6.1-14.8-14.8,0-16.3,0-32.6,0-48.8,0-8.6,6.1-14.7,14.6-14.7,10.7,0,21.4,0,32.1,0,8.4,0,14.5,6.1,14.5,14.5,0,8.2,0,16.4,0,24.6ZM42.5,126c0,8.1,0,16.2,0,24.3,0,3.8,1.8,5.6,5.5,5.6,10.4,0,20.9,0,31.3,0,3.7,0,5.5-1.8,5.5-5.5,0-16.2,0-32.3,0-48.5,0-3.6-1.8-5.4-5.4-5.4-10.5,0-21.1,0-31.6,0-3.5,0-5.4,1.8-5.4,5.3,0,8.1,0,16.2,0,24.3Z"></path><path class="cls-2" d="M63.7,33.4c5.3,0,10.7,0,16,0,8.5,0,14.5,6.1,14.6,14.6,0,5.6,0,11.2,0,16.8,0,8.4-6.1,14.5-14.5,14.5-10.7,0-21.5,0-32.2,0-8.3,0-14.5-6.2-14.5-14.5,0-5.6,0-11.3,0-16.9,0-8.3,6.2-14.4,14.4-14.4,5.4,0,10.8,0,16.2,0ZM63.8,42.8c-5.4,0-10.8,0-16.2,0-3.1,0-5.1,1.9-5.1,5,0,5.7,0,11.4,0,17,0,3,2,5,5,5,10.8,0,21.6,0,32.3,0,3.1,0,5-2,5-5.1,0-5.6,0-11.2,0-16.8,0-3.3-1.9-5.2-5.2-5.2-5.3,0-10.6,0-15.9,0Z"></path><path class="cls-2" d="M134.3,165.3c-5.3,0-10.6,0-15.9,0-8.5,0-14.6-6.1-14.6-14.7,0-5.5,0-11.1,0-16.6,0-8.4,6.1-14.6,14.6-14.6,10.7,0,21.4,0,32.1,0,8.4,0,14.5,6.1,14.6,14.6,0,5.6,0,11.2,0,16.8,0,8.4-6.1,14.5-14.5,14.5-5.4,0-10.8,0-16.2,0ZM134.4,155.8c5.3,0,10.7,0,16,0,3.2,0,5.1-1.9,5.1-5.2,0-5.6,0-11.2,0-16.8,0-3.2-2-5.1-5.1-5.1-10.7,0-21.4,0-32,0-3.3,0-5.2,1.9-5.2,5.2,0,5.5,0,11.1,0,16.6,0,3.3,1.9,5.2,5.2,5.2,5.3,0,10.7,0,16,0Z"></path></g><g><path class="cls-1" d="M164.9,48.1c0-8.6-6.1-14.7-14.7-14.7-8.4,0-16.9,0-25.3,0,1.9,1.1,3.3,3,3,5.4-.2,1.7-1.3,3.1-2.7,4.1,8.3,0,16.6,0,24.9,0,3.7,0,5.5,1.8,5.5,5.5,0,8.1,0,16.2,0,24.3,0,8.1,0,16.2,0,24.3,0,2-.6,3.4-1.7,4.3-.5,1-.7,2.1-.6,3.2,0,.7.2,1.3.5,1.9.4.6,1.1,1.1,1.8,1.4,1.6.7,3.4.6,5.1.1,2.8-2.6,4.4-6.4,4.4-11,0-8,0-16.1,0-24.1,0-8.2,0-16.4,0-24.6Z"></path><path class="cls-2" d="M152.9,106.9c-.9-1.4-.9-3.3-.4-4.9-.7.2-1.5.3-2.4.3-10.5,0-21,0-31.5,0-3.6,0-5.5-1.8-5.5-5.4,0-16.2,0-32.4,0-48.7,0-3.6,1.8-5.4,5.4-5.4,1.4,0,2.8,0,4.1,0,2.8-.5,5-3.6,3.8-6.4-.8-1.8-2.7-2.6-4.5-3-1.2,0-2.4,0-3.6,0-8.6,0-14.7,6.1-14.7,14.7,0,16.3,0,32.6,0,48.8,0,8.6,6.1,14.7,14.7,14.7,10.5,0,21.1,0,31.6,0,3.5,0,6.5-.9,8.9-2.6-2.3.2-4.9-.2-6.1-2.2Z"></path><path class="cls-1" d="M53.4,165.3c.7-.5,1.4-1.2,1.9-1.9.9-1.3,1.3-3.1.6-4.6-.6-1.3-1.9-1.9-3.1-2.5-.3-.1-.6-.2-.9-.4-1.3,0-2.6,0-3.9,0-3.8,0-5.5-1.8-5.5-5.6,0-8.1,0-16.2,0-24.3,0-8.1,0-16.2,0-24.3,0-3.5,1.8-5.3,5.4-5.3,8.9,0,17.8,0,26.8,0-.9-.9-1.6-2-2-3.2-.8-2.5.3-4.6,2-6.2-9,0-17.9,0-26.9,0-8.5,0-14.6,6.1-14.6,14.7,0,16.3,0,32.6,0,48.8,0,8.7,6.1,14.8,14.8,14.8,1.8,0,3.6,0,5.5,0Z"></path><path class="cls-2" d="M94.3,101.4c0-8.4-6.1-14.4-14.5-14.5-1.2,0-2.4,0-3.6,0-1.9,1.4-3.4,3.6-2.5,6.1.4,1.3,1.3,2.4,2.5,3.3,1.1,0,2.2,0,3.4,0,3.6,0,5.4,1.8,5.4,5.4,0,16.2,0,32.3,0,48.5,0,3.7-1.8,5.5-5.5,5.5-8.3,0-16.7,0-25,0,1.3.7,2.4,1.8,2.7,3.3.4,1.8-.1,3.6-1.2,5.1-.3.4-.6.7-.9,1.1,8.2,0,16.3,0,24.5,0,8.9,0,14.9-6,14.9-14.8,0-8.1,0-16.3,0-24.4,0-8.2,0-16.4,0-24.6Z"></path><path class="cls-1" d="M34.7,56.9c1,1,2.5,1.5,3.8,1.6,1.3,0,2.6-.2,3.5-1.1.2-.2.3-.3.5-.5,0-3,0-6,0-9,0-3.1,2-5,5.1-5,5.4,0,10.8,0,16.2,0,5.3,0,10.6,0,15.9,0,3.3,0,5.2,1.9,5.2,5.2,0,4.5,0,8.9,0,13.4.3-.5.7-.9,1.1-1.3,2.1-1.7,5-1.2,7,.3.5.4.9.8,1.3,1.3,0-4.6,0-9.2,0-13.8,0-8.5-6.1-14.5-14.6-14.6-5.3,0-10.7,0-16,0-5.4,0-10.8,0-16.2,0-8.3,0-14.4,6.2-14.4,14.4,0,1.9,0,3.9,0,5.8,0,0,0,0,0,0,.3,1.2.7,2.3,1.6,3.2Z"></path><path class="cls-2" d="M93.9,62.9c-.7-1.1-1.7-1.9-2.9-2.4-1.3-.5-2.7-.7-3.9.1-1.1.7-1.8,1.8-2.2,2.9,0,.4,0,.8,0,1.2,0,3.1-1.9,5.1-5,5.1-10.8,0-21.6,0-32.3,0-3,0-5-2-5-5,0-2.2,0-4.4,0-6.6,0,0-.1.1-.2.2-2.4,1.8-6.4,1.2-8.5-.9-.3-.3-.5-.7-.8-1,0,2.8,0,5.5,0,8.3,0,8.3,6.2,14.5,14.5,14.5,10.7,0,21.5,0,32.2,0,8.4,0,14.4-6.2,14.5-14.5,0-.3,0-.7,0-1-.1-.3-.2-.6-.4-.8Z"></path><path class="cls-2" d="M110.4,160.8c-.4-1.8-.1-3.9,1.4-5.1.8-.7,1.9-1,2.9-1.1-1-.9-1.6-2.2-1.6-4,0-5.5,0-11.1,0-16.6,0-3.3,1.9-5.2,5.2-5.2,2.2,0,4.5,0,6.7,0,1.4-1.6,2.2-3.8,1.7-5.9-.4-1.8-1.6-2.9-3.2-3.5-1.8,0-3.5,0-5.3,0-8.4,0-14.5,6.2-14.6,14.6,0,5.5,0,11.1,0,16.6,0,6.1,3.1,10.9,8,13.2-.7-.9-1.1-1.9-1.4-3Z"></path><path class="cls-1" d="M150.4,119.4c-8.2,0-16.4,0-24.6,0,.1,0,.2.2.3.3,2,1.8,2.2,4.8,1.3,7.2-.3.7-.6,1.4-1,1.9,8,0,16,0,24,0,3.2,0,5.1,2,5.1,5.1,0,5.6,0,11.2,0,16.8,0,3.2-1.9,5.1-5.1,5.2-5.3,0-10.7,0-16,0-5.3,0-10.7,0-16,0-.7,0-1.3-.1-1.9-.3-1.6,0-3.5,0-4.6,1.4-1,1.3-.8,3.4-.2,4.9.5,1.1,1.2,2,2.1,2.8,1.4.4,2.9.6,4.5.6,5.3,0,10.6,0,15.9,0,5.4,0,10.8,0,16.2,0,8.4,0,14.5-6.1,14.5-14.5,0-5.6,0-11.2,0-16.8,0-8.4-6.1-14.6-14.6-14.6Z"></path></g></g></g></svg>