<svg version="1.1" id="Layer_1" xmlns="http://www.w3.org/2000/svg" xmlns:xlink="http://www.w3.org/1999/xlink" x="0px" y="0px" viewBox="0 0 1125.6 240.1" style="enable-background:new 0 0 1125.6 240.1;" xml:space="preserve"><style type="text/css">
	.st0{fill:#EDFCF7;}
	.st1{fill:#00B67A;}
	.st2{fill:#FFFFFF;}
</style><rect x="7" y="8.5" class="st0" width="217" height="224"></rect><rect x="231" y="8.5" class="st0" width="217" height="224"></rect><rect x="455" y="8.5" class="st0" width="217" height="224"></rect><rect x="679" y="8.5" class="st0" width="217" height="224"></rect><rect x="903" y="8.5" class="st0" width="217" height="224"></rect><rect x="7" y="8.5" class="st1" width="217" height="224"></rect><g id="Star"><polygon class="st2" points="215.1,97.9 141.1,97.9 118.2,27.5 95.3,97.9 21.2,97.9 81.2,141.4 58.3,211.8 118.2,168.3 
		178.1,211.8 155.2,141.4 	"></polygon><polygon class="st1" points="160.4,157.4 155.2,141.4 118.2,168.3 	"></polygon></g><rect x="231" y="8.5" class="st1" width="217" height="224"></rect><g id="Star_00000066505433842708857470000003310205916232585902_"><polygon class="st2" points="439.1,97.9 365.1,97.9 342.2,27.5 319.3,97.9 245.2,97.9 305.2,141.4 282.3,211.8 342.2,168.3 
		402.1,211.8 379.2,141.4 	"></polygon><polygon class="st1" points="384.4,157.4 379.2,141.4 342.2,168.3 	"></polygon></g><rect x="455" y="8.5" class="st1" width="217" height="224"></rect><g id="Star_00000047748210562758046170000017791382365852760971_"><polygon class="st2" points="663.1,97.9 589.1,97.9 566.2,27.5 543.3,97.9 469.2,97.9 529.2,141.4 506.3,211.8 566.2,168.3 
		626.1,211.8 603.2,141.4 	"></polygon><polygon class="st1" points="608.4,157.4 603.2,141.4 566.2,168.3 	"></polygon></g><rect x="679" y="8.5" class="st1" width="217" height="224"></rect><g id="Star_00000066499877696048022250000006277307339077775270_"><polygon class="st2" points="887.1,97.9 813.1,97.9 790.2,27.5 767.3,97.9 693.2,97.9 753.2,141.4 730.3,211.8 790.2,168.3 
		850.1,211.8 827.2,141.4 	"></polygon><polygon class="st1" points="832.4,157.4 827.2,141.4 790.2,168.3 	"></polygon></g><rect x="903" y="8.5" class="st1" width="111.1" height="224"></rect><g id="Star_00000166635507427036333240000004597751173802768829_"><polygon class="st2" points="1111.1,97.9 1037.1,97.9 1014.2,27.5 991.3,97.9 917.2,97.9 977.2,141.4 954.3,211.8 1014.2,168.3 
		1074.1,211.8 1051.2,141.4 	"></polygon><polygon class="st0" points="1056.4,157.4 1051.2,141.4 1014.2,168.3 	"></polygon></g></svg>