<svg id="Layer_1" xmlns="http://www.w3.org/2000/svg" viewBox="0 0 500 500"><defs><style>
      .cls-1 {
        fill: #f9679b;
      }
      .cls-2 {
        fill: #e02889;
      }
    </style></defs><path class="cls-2" d="M362.04,403.36h-224.09c-.25-.15-.49-.38-.75-.43-22.34-4.56-34.91-19.88-34.91-42.61,0-65.99-.01-131.99.02-197.98,0-3.08.07-6.23.63-9.24,3.76-20.11,20.13-33.64,40.59-33.71,5.07-.02,10.13,0,15.53,0,0-3.66-.03-7.03,0-10.39.08-7.24,4.85-12.37,11.45-12.34,6.63.03,11.23,5.1,11.27,12.44.02,3.36,0,6.72,0,10.07h136.44c0-1.21,0-2.19,0-3.17,0-2.6-.03-5.19.01-7.79.12-6.48,4.77-11.37,10.95-11.55,6.28-.18,11.38,4.57,11.71,11.14.19,3.75.03,7.53.03,11.6,5.82,0,11.28-.03,16.75,0,6.82.04,13.28,1.68,19.14,5.15,14.01,8.27,20.89,20.67,20.9,36.89.01,41.03,0,82.07,0,123.1,0,25.66.05,51.32-.02,76.98-.05,19.56-11.84,35.38-29.92,40.4-1.9.53-3.82.97-5.73,1.45ZM375.01,216.11H125.13c-.06.89-.15,1.57-.15,2.26,0,47.81-.04,95.62.02,143.43.01,11.38,7.7,18.81,19.13,18.81,70.58.01,141.15,0,211.73,0,1.49,0,3.01-.03,4.46-.32,9.21-1.85,14.68-9.07,14.68-19.4.01-47.11,0-94.22,0-141.33,0-1.08,0-2.16,0-3.44ZM181.75,142.25c0,4.14.09,7.93-.02,11.7-.15,4.88-3.47,9.03-8.1,10.36-7.37,2.11-14.29-3.11-14.55-11.09-.12-3.64-.02-7.29-.02-11.1-5.25,0-10.03,0-14.81,0-11.76.03-19.2,7.45-19.26,19.28-.05,9.58-.01,19.16,0,28.75,0,.95.1,1.9.15,2.76h249.62c0-11.91.4-23.58-.14-35.22-.34-7.32-4.91-12.93-11.97-14.46-6.96-1.5-14.34-1.08-21.7-1.51,0,4.25.01,7.64,0,11.03-.02,3.56-1.09,6.73-3.84,9.08-3.55,3.05-7.61,3.9-11.98,1.99-4.3-1.89-6.72-5.26-6.86-10.01-.11-3.85-.02-7.7-.02-11.57h-136.49Z"></path><g><path class="cls-1" d="M345.1,398.5c-1.67-2.5-2.22-5.68-1.75-8.63.73-4.62,4.23-7.67,8.35-9.27-69.19.01-138.37.02-207.56,0-11.43,0-19.12-7.43-19.13-18.81-.06-47.8-.03-95.61-.02-143.41-.48-1.16-1.07-2.27-1.85-3.25-1.63-2.05-3.95-3.26-6.49-3.77-2.53-.51-5.26-.77-7.73.14-3.77,1.4-5.5,5.35-6.61,9.06-.01,46.58-.02,93.17-.02,139.75,0,22.73,12.57,38.05,34.91,42.61.27.05.5.28.75.43h213.04c-2.33-1.1-4.45-2.69-5.89-4.86Z"></path><path class="cls-2" d="M397.71,284.53c0-41.03,0-82.07,0-123.1,0-16.23-6.89-28.63-20.9-36.89-5.87-3.46-12.32-5.1-19.14-5.15-4.89-.03-9.8-.01-14.95,0v22.43c6.77.28,13.53.04,19.93,1.42,7.05,1.52,11.63,7.14,11.97,14.46.54,11.63.14,23.31.14,35.22H125.13c-.05-.87-.15-1.81-.15-2.76-.01-9.58-.04-19.17,0-28.75.06-11.84,7.5-19.26,19.26-19.28,4.21,0,8.45,0,12.98,0v-22.74c-4.72,0-9.22-.01-13.71,0-20.46.07-36.83,13.6-40.59,33.71-.56,3.02-.63,6.16-.63,9.24,0,18.4,0,36.8,0,55.2.5-1.22,1.09-2.4,1.86-3.47,1.32-1.84,3.13-3.22,5.33-3.8,2.73-.72,5.83-.37,8.51.39,2.63.74,4.87,2.29,6.42,4.55.25.37.48.75.69,1.14,0-.08.01-.15.02-.24h249.88c0,1.28,0,2.36,0,3.44,0,47.11,0,94.22,0,141.33,0,10.33-5.47,17.55-14.68,19.4-1.45.29-2.97.32-4.46.32h-.55c-2.81.54-5.59,1.61-7.73,3.54-2.01,1.81-3.23,4.28-3.38,6.99-.16,2.82.63,5.66,2.48,7.83,1.79,2.09,4.22,3.5,6.85,4.39h8.5c1.91-.48,3.83-.93,5.73-1.45,18.09-5.01,29.87-20.83,29.92-40.4.07-25.66.02-51.32.02-76.98Z"></path><path class="cls-1" d="M318.21,118.43h.09v25.15h-.08c-.02,3.42-.07,6.83.03,10.23.14,4.75,2.56,8.12,6.86,10.01,4.36,1.92,8.43,1.06,11.98-1.99,2.75-2.35,3.82-5.52,3.84-9.08.01-2.88,0-5.77,0-9.18h-.02v-24.2h0c0-.32,0-.63,0-.95,0-.06,0-.12,0-.18.02-3.64.13-7.07-.04-10.47-.33-6.57-5.43-11.32-11.71-11.14-6.17.18-10.83,5.07-10.95,11.55-.05,2.59-.01,5.19-.01,7.79,0,.78,0,1.56,0,2.45Z"></path><rect class="cls-2" x="183.43" y="119.15" width="133.08" height="23.1"></rect><path class="cls-1" d="M159.02,119.38v22.74h.04c0,3.81-.1,7.46.02,11.1.26,7.98,7.18,13.21,14.55,11.09,4.62-1.33,7.95-5.48,8.1-10.36.1-3.36.04-6.75.03-10.37h-.12v-25.15h.14c0-3.11.01-6.23,0-9.35-.04-7.35-4.64-12.42-11.27-12.44-6.6-.03-11.37,5.11-11.45,12.34-.04,3.37,0,6.73,0,10.39h-.03Z"></path></g><path class="cls-2" d="M279.98,310.81c2.8,0,5.6,0,8.39,0,3.29,0,5.44-1.43,6.43-4.7,1.5-4.95,3.16-9.85,4.8-14.75,1.24-3.71,3.32-5.5,6.33-5.37,3.39.14,5.14,2.25,6.11,5.27,1.54,4.83,3.1,9.65,4.7,14.46,1.33,4,2.79,5.06,7.06,5.09,5.18.04,10.36,0,15.54.02,3.91.02,6,1.33,7.08,4.35,1.11,3.08.22,5.63-2.98,8.04-3.88,2.94-7.84,5.78-11.75,8.68-4.34,3.22-4.85,4.88-3.15,10.1,1.5,4.62,3.01,9.25,4.55,13.86,1.02,3.04.78,5.76-1.96,7.79-2.76,2.05-5.43,1.39-8.01-.49-3.93-2.87-7.88-5.71-11.83-8.56-4.58-3.31-6.35-3.32-10.85-.08-3.95,2.85-7.9,5.69-11.83,8.56-2.56,1.87-5.18,2.62-8.02.66-2.51-1.73-3.18-4.32-2-8.04,1.51-4.73,3.12-9.43,4.65-14.15,1.49-4.62.89-6.51-2.95-9.38-3.9-2.92-7.84-5.77-11.74-8.69-3.41-2.55-4.42-5.08-3.36-8.2,1.1-3.21,3.21-4.45,7.63-4.47,2.38,0,4.77,0,7.15,0Z"></path><path class="cls-1" d="M171.41,256.66c-6.84-.02-12.45-5.69-12.39-12.53.06-6.84,5.77-12.42,12.6-12.32,6.72.1,12.21,5.65,12.24,12.37.03,6.84-5.61,12.49-12.45,12.47Z"></path><path class="cls-1" d="M225.43,231.82c6.84-.08,12.53,5.52,12.56,12.36.03,6.84-5.6,12.49-12.44,12.48-6.72,0-12.29-5.49-12.41-12.2-.12-6.84,5.44-12.56,12.28-12.64Z"></path><path class="cls-1" d="M279.65,256.66c-6.84-.03-12.44-5.71-12.37-12.55.07-6.84,5.79-12.41,12.63-12.29,6.72.11,12.2,5.67,12.22,12.39.02,6.84-5.63,12.48-12.47,12.45Z"></path><path class="cls-1" d="M321.4,244.11c.07-6.84,5.79-12.41,12.62-12.3,6.84.11,12.37,5.86,12.22,12.7-.15,6.71-5.75,12.17-12.47,12.14-6.84-.03-12.44-5.71-12.37-12.55Z"></path><path class="cls-1" d="M183.86,298.49c-.07,6.84-5.79,12.4-12.63,12.29-6.84-.11-12.37-5.87-12.21-12.71.15-6.71,5.76-12.16,12.47-12.14,6.84.03,12.44,5.71,12.37,12.55Z"></path><path class="cls-1" d="M225.65,310.79c-6.84.05-12.5-5.57-12.51-12.41,0-6.84,5.65-12.47,12.49-12.43,6.72.04,12.26,5.54,12.35,12.26.09,6.84-5.5,12.54-12.34,12.58Z"></path><path class="cls-1" d="M183.86,352.55c-.03,6.84-5.72,12.44-12.56,12.36-6.84-.08-12.4-5.8-12.28-12.64.12-6.72,5.68-12.2,12.4-12.21,6.84-.01,12.47,5.64,12.44,12.48Z"></path><path class="cls-1" d="M237.99,352.6c-.06,6.84-5.76,12.42-12.6,12.32-6.84-.1-12.38-5.84-12.24-12.68.14-6.72,5.73-12.18,12.45-12.16,6.84.02,12.45,5.68,12.39,12.53Z"></path></svg>