<svg id="Layer_1" xmlns="http://www.w3.org/2000/svg" viewBox="0 0 500 500"><defs><style>
      .cls-1 {
        fill: #0a7ef2;
      }
      .cls-2 {
        fill: #08a6f4;
      }
    </style></defs><g id="Layer_1-2"><g id="Layer_1-2-2"><g id="Layer_1-2-2"><g id="Two_USA_Flags"><g id="Right_Flag"><g><path class="cls-2" d="M85.31,372.02c-1.86,0-3.72-.83-4.96-2.07s-2.07-3.1-2.07-4.96l-.41-247.13c0-3.93,3.1-7.03,7.03-7.03l329.78-.62h0c1.86,0,3.72.83,4.96,2.07,1.24,1.24,2.07,3.1,2.07,4.96l.41,247.13c0,3.93-3.1,7.03-7.03,7.03l-329.78.62h0ZM92.13,124.89v233.08c.21,0,315.94-.62,315.94-.62l-.41-233.08s-315.53.62-315.53.62Z"></path><path class="cls-2" d="M85.31,377.19h0c-3.1,0-6.41-1.24-8.68-3.51-2.27-2.27-3.51-5.37-3.51-8.68l-.41-247.13c0-6.82,5.37-12.19,12.19-12.19l329.78-.62c3.1,0,6.41,1.24,8.68,3.51,2.27,2.27,3.51,5.37,3.51,8.68l.41,247.13c0,6.82-5.37,12.19-12.19,12.19l-329.78.62ZM414.69,115.39l-329.78.62c-1.03,0-1.86.83-1.86,1.86l.41,247.13c0,.41.21,1.03.62,1.24.41.41.83.62,1.24.62l329.78-.62c1.03,0,1.86-.83,1.86-1.86l-.41-247.13c0-.41-.21-1.03-.62-1.24-.41-.41-.83-.62-1.24-.62h0ZM92.13,363.14h-5.17V119.73l325.86-.62.41,243.41h-5.17c-12.81,0-315.73.62-315.94.62h.01ZM97.3,130.06v222.75c37.61,0,268-.62,305.61-.62l-.41-222.75-305.19.62h0Z"></path></g><g><path class="cls-2" d="M273.14,161.67h0c0-3.31,2.69-5.99,5.99-5.99h135.55v11.78h-135.55c-3.31,0-5.99-2.48-5.99-5.79Z"></path><path class="cls-2" d="M419.85,172.62h-140.72c-6.2,0-11.16-4.75-11.16-10.95s4.96-11.16,11.16-11.16h140.72v22.11ZM279.14,160.85c-.41,0-.83.41-.83.83s.83.62.83.62h130.38v-1.45h-130.38Z"></path></g><g><path class="cls-2" d="M273.14,210.64h0c0-3.31,2.69-5.99,5.99-5.99h135.55v11.78h-135.55c-3.31,0-5.99-2.48-5.99-5.79Z"></path><path class="cls-2" d="M419.85,221.6h-140.72c-6.2,0-11.16-4.75-11.16-10.95s4.96-11.16,11.16-11.16h140.72v22.11ZM279.14,209.82c-.41,0-.83.41-.83.83s.83.62.83.62h130.38v-1.45h-130.38Z"></path></g><g><rect class="cls-2" x="84.69" y="262.3" width="329.78" height="11.98"></rect><path class="cls-2" d="M419.64,279.45H79.53v-22.32h340.12v22.32h0ZM89.86,269.12h319.45v-1.65H89.86v1.65Z"></path></g><g><rect class="cls-2" x="84.69" y="308.79" width="329.78" height="11.98"></rect><path class="cls-2" d="M419.64,325.94H79.53v-22.32h340.12v22.32h0ZM89.86,315.61h319.45v-1.65H89.86v1.65Z"></path></g><path class="cls-1" d="M214.46,155.47h0M229.75,142.04c-.41,0-.62.41-.83.83l-4.55,9.3-10.33,1.45h-.41c-.83.41-1.24,1.45-.83,2.27s.41.41.62.62l7.23,7.03-1.86,10.33c0,.62,0,1.24.62,1.65.62.41,1.24.41,1.86,0s0,0,0,0l9.3-4.96,9.3,4.75h1.65c.62,0,0,0,0,0,.62-.41.83-1.03.62-1.65l-1.86-10.33,7.44-7.23c.41-.41.62-1.24.41-1.86,0-.62-.83-1.03-1.45-1.24l-10.33-1.45-4.55-9.3c0-.62-.83-1.03-1.65-1.03h-.83v.83h.43Z"></path><path class="cls-1" d="M214.46,204.65h0M229.96,191.22c-.41,0-.62.41-.83.83l-4.55,9.3-10.33,1.45h-.41c-.83.41-1.24,1.45-.83,2.27s.41.41.62.62l7.23,7.03-1.86,10.33c0,.62,0,1.24.62,1.65.62.41,1.24.41,1.86,0s0,0,0,0l9.09-4.96,9.3,4.75h1.65c.62,0,0,0,0,0,.62-.41.83-1.03.62-1.65l-1.86-10.33,7.44-7.23c.41-.41.62-1.24.41-1.86,0-.62-.83-1.03-1.45-1.24l-10.33-1.45-4.55-9.3c0-.62-.83-1.03-1.65-1.03h-.83l.41.83h.23Z"></path><path class="cls-1" d="M165.28,155.47h0M180.57,142.04c-.41,0-.62.41-.83.83l-4.55,9.3-10.33,1.45h-.41c-.83.41-1.24,1.45-.83,2.27s.41.41.62.62l7.23,7.03-1.86,10.33c0,.62,0,1.24.62,1.65.62.41,1.24.41,1.86,0s0,0,0,0l9.09-4.96,9.3,4.75h1.65c.62,0,0,0,0,0,.62-.41.83-1.03.62-1.65l-1.86-10.33,7.44-7.23c.41-.41.62-1.24.41-1.86,0-.62-.83-1.03-1.45-1.24l-10.33-1.45-4.55-9.3c0-.62-.83-1.03-1.65-1.03h-.83l.41.83h.23Z"></path><path class="cls-1" d="M165.28,204.86h0M180.78,191.43c-.41,0-.62.41-.83.83l-4.55,9.3-10.33,1.45h-.41c-.83.41-1.24,1.45-.83,2.27s.41.41.62.62l7.23,7.03-1.86,10.33c0,.62,0,1.24.62,1.65.62.41,1.24.41,1.86,0s0,0,0,0l9.3-4.75,9.3,4.75h1.65c.62,0,0,0,0,0,.62-.41.83-1.03.62-1.65l-1.86-10.33,7.44-7.23c.41-.41.62-1.24.41-1.86,0-.62-.83-1.03-1.45-1.24l-10.33-1.45-4.55-9.3c0-.62-.83-1.03-1.65-1.03h-.83v.62h.43Z"></path><path class="cls-1" d="M116.1,155.68h0M131.39,142.25c-.41,0-.62.41-.83.83l-4.55,9.3-10.12,1.45h-.41c-.83.41-1.24,1.45-.83,2.27s.41.41.62.62l7.23,7.03-1.86,10.33c0,.62,0,1.24.62,1.65.62.41,1.24.41,1.86,0s0,0,0,0l9.3-4.96,9.3,4.75h1.65c.62,0,0,0,0,0,.62-.41.83-1.03.62-1.65l-1.86-10.33,7.44-7.23c.41-.41.62-1.24.41-1.86,0-.62-.83-1.03-1.45-1.24l-10.33-1.45-4.55-9.3c0-.62-.83-1.03-1.65-1.03h-.83v.83h.22Z"></path><path class="cls-1" d="M116.1,204.86h0M131.6,191.43c-.41,0-.62.41-.83.83l-4.55,9.3-10.12,1.45h-.62c-.83.41-1.24,1.45-.83,2.27s.41.41.62.62l7.23,7.03-1.86,10.33c0,.62,0,1.24.62,1.65.62.41,1.24.41,1.86,0s0,0,0,0l9.3-4.96,9.3,4.75h1.65c.62,0,0,0,0,0,.62-.41.83-1.03.62-1.65l-1.86-10.33,7.44-7.23c.41-.41.62-1.24.41-1.86s-.83-1.03-1.45-1.24l-10.33-1.45-4.55-9.3c0-.62-.83-1.03-1.65-1.03h-.83v.83h.43Z"></path></g></g></g></g><g><rect class="cls-1" x="99.57" y="303.63" width="301.06" height="22.32"></rect><path class="cls-1" d="M279.14,221.6h121.29v-22.11h-121.29c-6.2,0-11.16,4.96-11.16,11.16s4.96,10.95,11.16,10.95Z"></path><path class="cls-1" d="M426.88,117.25c0-3.1-1.24-6.41-3.51-8.68-1.45-1.45-3.51-2.69-5.58-3.1-2.48,0-4.75.62-7.03,1.45-1.86.62-3.93,1.45-5.17,2.89-1.24,1.44-1.65,3.51-2.07,5.58-1.03,4.96-.83,10.12-.83,15.08v69.22h0v22.11h0v35.54h0v22.32h0v24.18h0v22.32h0v26.24c-36.99,0-260.77.41-303.54.62v4.13c0,2.27,0,4.55-.21,6.82-.21,3.51-.83,7.85-3.51,10.12-1.24,1.03-2.69,1.65-4.13,2.27-.83.21-1.45.62-2.27.83l326.06-.62c6.82,0,12.19-5.37,12.19-12.19l-.41-247.13h.01Z"></path><path class="cls-1" d="M246.69,152.99l-10.33-1.45-4.55-9.3c0-.62-.83-1.03-1.65-1.03h-.83v.83h.41c-.41,0-.62.41-.83.83l-4.55,9.3-10.33,1.45h-.41c-.83.41-1.24,1.45-.83,2.27.41.83.41.41.62.62l7.23,7.03-1.86,10.33c0,.62,0,1.24.62,1.65s1.24.41,1.86,0l9.3-4.96,9.3,4.75h1.65c.62-.41.83-1.03.62-1.65l-1.86-10.33,7.44-7.23c.41-.41.62-1.24.41-1.86,0-.62-.83-1.03-1.45-1.24h.02Z"></path><path class="cls-1" d="M246.69,202.17l-10.33-1.45-4.55-9.3c0-.62-.83-1.03-1.65-1.03h-.83l.41.83h0c-.41,0-.62.41-.83.83l-4.55,9.3-10.33,1.45h-.41c-.83.41-1.24,1.45-.83,2.27.41.82.41.41.62.62l7.23,7.03-1.86,10.33c0,.62,0,1.24.62,1.65.62.41,1.24.41,1.86,0l9.09-4.96,9.3,4.75h1.65c.62-.41.83-1.03.62-1.65l-1.86-10.33,7.44-7.23c.41-.41.62-1.24.41-1.86,0-.62-.83-1.03-1.45-1.24h.23Z"></path><path class="cls-1" d="M164.25,156.51l7.23,7.03-1.86,10.33c0,.62,0,1.24.62,1.65.62.41,1.24.41,1.86,0l9.09-4.96,9.3,4.75h1.65c.62-.41.83-1.03.62-1.65l-1.86-10.33,7.44-7.23c.41-.41.62-1.24.41-1.86,0-.62-.83-1.03-1.45-1.24l-10.33-1.45-4.55-9.3c0-.62-.83-1.03-1.65-1.03h-.83l.41.83h.21c-.41,0-.62.41-.83.83l-4.55,9.3-10.33,1.45h-.41c-.83.41-1.24,1.45-.83,2.27.41.83.41.41.62.62h.02Z"></path><path class="cls-1" d="M197.72,202.59l-10.33-1.45-4.55-9.3c0-.62-.83-1.03-1.65-1.03h-.83v.62h.41c-.41,0-.62.41-.83.83l-4.55,9.3-10.33,1.45h-.41c-.83.41-1.24,1.45-.83,2.27.41.83.41.41.62.62l7.23,7.03-1.86,10.33c0,.62,0,1.24.62,1.65s1.24.41,1.86,0l9.3-4.75,9.3,4.75h1.65c.62-.41.83-1.03.62-1.65l-1.86-10.33,7.44-7.23c.41-.41.62-1.24.41-1.86,0-.62-.83-1.03-1.45-1.24h.02Z"></path><path class="cls-1" d="M148.54,153.2l-10.33-1.45-4.55-9.3c0-.62-.83-1.03-1.65-1.03h-.83v.83h0c-.41,0-.62.41-.83.83l-4.55,9.3-10.12,1.45h-.41c-.83.41-1.24,1.45-.83,2.27.41.83.41.41.62.62l7.23,7.03-1.86,10.33c0,.62,0,1.24.62,1.65.62.41,1.24.41,1.86,0l9.3-4.96,9.3,4.75h1.65c.62-.41.83-1.03.62-1.65l-1.86-10.33,7.44-7.23c.41-.41.62-1.24.41-1.86,0-.62-.83-1.03-1.45-1.24h.22Z"></path><path class="cls-1" d="M148.54,202.38l-10.33-1.45-4.55-9.3c0-.62-.83-1.03-1.65-1.03h-.83v.83h.41c-.41,0-.62.41-.83.83l-4.55,9.3-10.12,1.45h-.62c-.83.41-1.24,1.45-.83,2.27.41.83.41.41.62.62l7.23,7.03-1.86,10.33c0,.62,0,1.24.62,1.65s1.24.41,1.86,0l9.3-4.96,9.3,4.75h1.65c.62-.41.83-1.03.62-1.65l-1.86-10.33,7.44-7.23c.41-.41.62-1.24.41-1.86,0-.62-.83-1.03-1.45-1.24h.02Z"></path></g></g></svg>