<svg id="Layer_1" xmlns="http://www.w3.org/2000/svg" viewBox="0 0 500 500"><defs><style>
      .cls-1 {
        fill: #f9679b;
      }
      .cls-2 {
        fill: #e02889;
      }
    </style></defs><path class="cls-2" d="M142.38,411.87c-2.32-1.25-5.09-2.05-6.9-3.83-14.06-13.79-27.98-27.73-41.85-41.72-4.24-4.27-4.12-10.25-.06-14.67.59-.64,1.22-1.24,1.84-1.85,68.44-68.38,136.89-136.75,205.33-205.13,6.9-6.89,11.9-6.87,18.88.1,12.86,12.84,25.72,25.68,38.57,38.54,5.68,5.68,5.7,11.36.04,17.02-68.98,68.92-137.96,137.83-206.93,206.77-2.41,2.4-5.04,4.13-8.92,4.77ZM257.96,217.86c-47.18,47.14-94.36,94.27-141.24,141.1,8.67,8.65,17.58,17.53,25.99,25.92,47-46.96,94.24-94.16,141.21-141.08-8.52-8.52-17.36-17.35-25.96-25.94ZM299.4,228.39c12.37-12.35,24.73-24.69,36.53-36.47-8.55-8.65-17.39-17.58-25.7-25.99-12.18,12.16-24.54,24.51-36.7,36.64,8.55,8.53,17.39,17.35,25.87,25.81Z"></path><path class="cls-2" d="M236.96,170.8c-3.9,0-7.45-2.27-9.08-5.82-8-17.39-19.82-29.2-37.19-37.16-3.55-1.63-5.83-5.17-5.83-9.08,0-3.91,2.26-7.46,5.81-9.09,17.41-8.04,29.22-19.86,37.15-37.21,1.62-3.55,5.17-5.83,9.07-5.84h.02c3.9,0,7.44,2.26,9.08,5.8,8.07,17.45,19.9,29.27,37.23,37.17,3.56,1.62,5.84,5.17,5.85,9.07,0,3.91-2.26,7.46-5.8,9.1-17.49,8.09-29.32,19.91-37.21,37.2-1.62,3.56-5.17,5.84-9.08,5.85h-.02ZM214.96,118.71c8.63,6.04,15.93,13.34,21.99,21.97,6.04-8.61,13.34-15.9,22-21.97-8.63-6.04-15.94-13.34-22.01-21.99-6.04,8.63-13.34,15.93-21.98,22Z"></path><path class="cls-2" d="M372.93,149.81c-3.87,0-7.39-2.23-9.04-5.73-6-12.7-14.53-21.17-26.83-26.67-3.59-1.6-5.9-5.16-5.92-9.08-.02-3.93,2.27-7.5,5.84-9.14,12.69-5.81,20.95-14.03,26.76-26.66,1.63-3.53,5.15-5.8,9.04-5.82,3.92-.04,7.43,2.23,9.09,5.74,5.96,12.67,14.48,21.14,26.79,26.63,3.58,1.6,5.9,5.14,5.93,9.07s-2.24,7.5-5.81,9.15c-12.6,5.82-21.1,14.3-26.76,26.67-1.62,3.54-5.14,5.82-9.03,5.84h-.06ZM360.54,108.25c4.61,3.57,8.71,7.67,12.33,12.33,3.58-4.62,7.68-8.71,12.32-12.3-4.62-3.57-8.72-7.67-12.34-12.34-3.59,4.63-7.68,8.72-12.31,12.3Z"></path><path class="cls-2" d="M404.28,273.57c-3.25,0-6.21-1.85-7.64-4.77-4.01-8.22-9.25-13.43-17.01-16.91-3.03-1.36-4.99-4.35-5.02-7.67-.03-3.32,1.87-6.35,4.87-7.77,7.84-3.71,13.31-9.02,16.71-16.23,1.27-2.69,3.84-4.52,6.8-4.83,2.96-.32,5.86.94,7.66,3.31,1.04,1.37,2,2.72,2.93,4.02,1.82,2.56,3.55,4.98,5.39,6.81,1.77,1.76,4.04,3.35,6.67,5.19,1.32.92,2.69,1.88,4.1,2.93,2.4,1.79,3.68,4.72,3.36,7.7-.32,2.98-2.18,5.57-4.9,6.83-7.35,3.38-12.5,8.63-16.22,16.52-1.39,2.96-4.36,4.85-7.63,4.88h-.06ZM398.87,244.08c1.91,1.63,3.69,3.42,5.34,5.35,1.67-1.97,3.47-3.79,5.42-5.44-.91-.76-1.8-1.56-2.67-2.43-.94-.94-1.81-1.9-2.63-2.89-1.66,1.93-3.48,3.74-5.45,5.41Z"></path><g><path class="cls-1" d="M151.03,394.14c-2.8-3.31-6.69-5.7-8.75-9.62-.02-.03-.02-.06-.03-.09-8.28-8.26-17.01-16.97-25.53-25.46,46.88-46.83,94.06-93.97,141.24-141.1,8.24,8.23,16.69,16.68,24.88,24.86.85.42,1.71.85,2.62,1.12,1.15.34,2.39.38,3.58.28,3.86-.33,8.14-1.96,10.36-5.3,2.39-3.6,1.25-7.82-1.03-11.16-.09-.14-.1-.27-.07-.38-8.14-8.12-16.58-16.54-24.77-24.71,5.77-5.76,11.58-11.56,17.4-17.37,1.36-2.51,2.5-5.33,2.34-8.23-.15-2.84-1.79-5.52-4.25-6.95-2.37-1.38-5.26-1.84-7.97-1.73-1.7.07-3.49.4-5.08,1.12-60.19,60.13-120.38,120.26-180.56,180.39-.62.62-1.25,1.21-1.84,1.85-4.07,4.41-4.18,10.39.06,14.67,13.87,13.99,27.79,27.93,41.85,41.72,1.81,1.77,4.57,2.58,6.9,3.83,3.48-.58,5.95-2.02,8.15-4.04,1.51-2.42,3.02-5.23,2.91-8.17-.08-2.09-1.09-3.95-2.41-5.52Z"></path><path class="cls-2" d="M358.2,183.31c-12.85-12.86-25.71-25.69-38.57-38.54-6.98-6.97-11.98-7-18.88-.1-7.71,7.71-15.43,15.41-23.14,23.12,1.42-.37,2.91-.53,4.33-.52,2.85.02,5.93.66,8.3,2.33,2.49,1.76,4.01,4.72,4.05,7.76.03,1.96-.48,3.88-1.22,5.7,5.74-5.73,11.47-11.45,17.17-17.14,8.32,8.41,17.15,17.34,25.7,25.99-11.68,11.66-23.91,23.87-36.15,36.09,1.21,1.99,2.05,4.24,1.98,6.6-.12,4.13-3.09,7.33-6.7,8.97-2.16.98-4.59,1.57-6.97,1.59-1.1.01-2.2-.1-3.24-.46-.44-.15-.87-.34-1.3-.54-46.65,46.6-93.56,93.48-140.25,140.12,1.23,2.21,3.1,3.95,4.94,5.65,3.24,3,6.73,6.36,6.13,11.18-.18,1.45-.66,2.85-1.29,4.19,68.37-68.34,136.77-136.66,205.15-204.99,5.67-5.66,5.64-11.33-.04-17.02Z"></path></g><g><path class="cls-1" d="M193.5,126.85c2.8.01,5.56-.78,8.15-1.78,4.69-1.81,8.97-4.5,13.56-6.54,8.53-6.03,15.75-13.27,21.73-21.82,5.8,8.26,12.74,15.28,20.86,21.15,3.53-2.07,7.07-4.13,10.75-5.9,3.01-1.45,6.1-2.81,9.48-3.03,1.62-.1,3.23.06,4.79.45-17.11-7.9-28.82-19.66-36.83-36.98-1.64-3.54-5.18-5.8-9.08-5.8h-.02c-3.91,0-7.45,2.29-9.07,5.84-7.94,17.34-19.74,29.17-37.15,37.21-3.54,1.64-5.81,5.19-5.81,9.09,0,2.24.77,4.34,2.08,6.05,1.94,1.33,4.17,2.05,6.57,2.06Z"></path><path class="cls-2" d="M286.45,111.95c-2.88-1.61-6.16-2.39-9.58-1.9-3.41.49-6.6,2.12-9.63,3.67-2.91,1.49-5.74,3.13-8.57,4.78.09.07.18.13.27.2-8.66,6.07-15.97,13.37-22,21.97-5.85-8.34-12.87-15.41-21.12-21.33-2.52,1.12-4.94,2.46-7.39,3.71-5,2.54-10.77,5.41-16.56,4.7-.77-.1-1.51-.26-2.21-.49.33.2.66.4,1.02.56,17.37,7.96,29.19,19.77,37.19,37.16,1.63,3.55,5.18,5.82,9.08,5.82h.02c3.91,0,7.46-2.29,9.08-5.85,7.89-17.29,19.71-29.11,37.21-37.2,3.55-1.64,5.81-5.2,5.8-9.1,0-2.53-.98-4.9-2.62-6.7Z"></path></g><g><path class="cls-1" d="M373.71,96.88c.06.07.09.15.11.23,3.08,3.8,6.5,7.22,10.27,10.26,2.18-2.08,4.56-3.96,7.15-5.5,5.12-3.03,11.51-4.95,17.26-2.53,1.07.45,2.09,1.03,3.02,1.72-.83-.8-1.78-1.48-2.87-1.97-12.32-5.49-20.83-13.95-26.79-26.63-1.65-3.52-5.16-5.79-9.09-5.74-2.83.01-5.47,1.23-7.32,3.25-.41.89-.68,1.85-.8,2.85-.36,3.04-.07,6.21.57,9.18,1.22,5.69,4.79,10.52,8.48,14.88Z"></path><path class="cls-2" d="M414.11,105.19s-.02-.04-.04-.06c-1.63-2.5-4.27-4.41-7.11-5.29-2.69-.84-5.56-.74-8.28-.06-5.23,1.32-9.94,4.51-13.83,8.23.11.09.22.19.34.28-4.37,3.38-8.24,7.22-11.66,11.5.81,1.38,1.46,2.84,2.11,4.3.78,1.74,1.7,3.38,2.65,5.03.84,1.45,1.65,2.93,2.16,4.53.49,1.51.69,3.13.72,4.72.05,3.12-.7,6.17-2.58,8.69-.54.72-1.15,1.37-1.79,1.96,2.27-.96,4.16-2.72,5.22-5.04,5.66-12.38,14.16-20.85,26.76-26.67,3.56-1.65,5.83-5.22,5.81-9.15,0-1.02-.18-2.02-.48-2.96Z"></path><path class="cls-2" d="M337.62,116.43c2.6.93,5.36.8,8.01.13,2.93-.74,5.72-2.03,8.34-3.54,2.35-1.35,4.59-2.92,6.6-4.75,0,0-.02-.01-.02-.02,4.38-3.39,8.26-7.25,11.71-11.57-1.89-2.28-3.69-4.64-5.15-7.23-1.53-2.72-2.61-5.62-3.12-8.69-.43-2.6-.69-5.42-.32-8.07-5.81,12.55-14.05,20.73-26.69,26.52-3.57,1.63-5.86,5.21-5.84,9.14,0,1.51.36,2.96.99,4.27,1.54,1.65,3.36,3.06,5.49,3.83Z"></path><path class="cls-1" d="M380.09,136.74c-.35-3.33-2.04-6.04-3.67-8.88-1.36-2.37-2.25-5-3.61-7.36-3.39-4.35-7.21-8.2-11.46-11.59-2.38,2.19-5.1,4.03-7.93,5.56-5.05,2.73-11.32,5.03-16.92,2.58-.28-.12-.55-.26-.81-.39.44.29.9.55,1.39.77,12.3,5.5,20.83,13.97,26.83,26.67,1.65,3.5,5.17,5.73,9.04,5.73h.06c.43,0,.85-.04,1.27-.1,1.68-1.08,3.13-2.48,4.17-4.21,1.59-2.62,1.96-5.75,1.65-8.76Z"></path></g><g><path class="cls-2" d="M377.98,250.88c.9.24,1.83.4,2.76.39,1.41-.02,2.8-.37,4.13-.79,2.53-.8,5.01-1.85,7.46-2.86,2.34-.97,4.9-2.08,6.74-3.88.11-.11.23-.14.34-.14,1.76-1.54,3.4-3.17,4.91-4.93.82.98,1.7,1.95,2.63,2.89.62.61,1.25,1.19,1.89,1.75,2.14-1.29,4.21-2.7,6.38-3.95,3.75-2.17,8.35-4.24,12.72-3-.79-.56-1.56-1.11-2.32-1.64-2.63-1.84-4.9-3.43-6.67-5.19-1.84-1.83-3.56-4.25-5.39-6.81-.93-1.3-1.89-2.65-2.93-4.02-1.8-2.36-4.7-3.62-7.66-3.31-2.96.31-5.53,2.14-6.8,4.83-3.4,7.21-8.86,12.52-16.71,16.23-3,1.42-4.9,4.45-4.87,7.77.03,2.66,1.31,5.1,3.37,6.66Z"></path><path class="cls-1" d="M431.48,239.44c-1.23-1.09-2.71-1.91-4.32-2.26-2.13-.47-4.34-.08-6.37.62-4.08,1.41-7.58,4.02-11.24,6.24-1.92,1.64-3.7,3.43-5.35,5.39-1.46-1.71-3.02-3.29-4.68-4.76-2.15,1.99-5.07,3.19-7.75,4.25-2.75,1.09-5.52,2.36-8.42,3.02-1.03.23-2.04.32-3.04.28,7.37,3.48,12.43,8.62,16.32,16.58,1.42,2.92,4.39,4.77,7.64,4.77h.06c3.27-.02,6.24-1.92,7.63-4.88,3.72-7.89,8.87-13.14,16.22-16.52,2.72-1.25,4.58-3.85,4.9-6.83.22-2.13-.38-4.22-1.6-5.9Z"></path></g></svg>