<svg id="Layer_1" xmlns="http://www.w3.org/2000/svg" viewBox="0 0 500 500"><defs><style>
      .cls-1 {
        fill: #0a7ef2;
      }
      .cls-2 {
        fill: #08a6f4;
      }
    </style></defs><g><path class="cls-1" d="M368.12,186.17v-63.69c0-.92,0-1.84.01-2.75.01-2.12.03-4.31-.03-6.51-.63-22.83-17.66-39.44-40.5-39.5-6.68-.02-13.35-.01-20.03,0h-37.53c-25.75.02-52.37.02-78.54-.02h-.09c-9.46,0-17.78,2.71-24.74,8.07-10.46,8.05-15.76,19.36-15.74,33.62.06,46.03.05,92.84.04,138.1v48.74c0,8.3,0,16.59,0,24.89.01,20.02.02,40.72-.03,61.08-.04,14.71,5.46,25.97,16.34,33.47,3.68,2.54,7.8,4.06,11.78,5.53,1.71.63,3.33,1.23,4.89,1.9.56.24,1.16.36,1.77.36h147.66c.61,0,1.21-.12,1.77-.36,1.56-.67,3.18-1.26,4.89-1.9,3.98-1.47,8.1-2.99,11.78-5.53,10.86-7.49,16.36-18.86,16.35-33.8-.05-67.23-.04-135.58-.04-201.69ZM192.58,403.06c-10.53,0-15.23-4.75-15.23-15.39,0-31.83,0-63.67,0-95.5v-40.93s0-36.21,0-36.21c0-33.52,0-67.04,0-100.57,0-7.36,3.43-12.29,9.65-13.89,1.46-.38,3.16-.45,5.25-.46,26.43-.02,53.65-.03,81.36-.03,17.51,0,35.23,0,53.07.01,10.28,0,15.06,4.84,15.06,15.22,0,90.84,0,181.69,0,272.53,0,10.37-4.79,15.2-15.07,15.21-44.7.02-89.39.02-134.08,0Z"></path><path class="cls-1" d="M259.61,350.37h-.09c-5.32,0-10.57,2.22-14.39,6.1-3.89,3.95-5.98,9.09-5.88,14.5.21,11.23,9.11,19.98,20.3,19.98h.12c11.15-.07,20.2-9.16,20.17-20.28-.03-11.14-9.11-20.25-20.24-20.3Z"></path><path class="cls-1" d="M295.39,107.19c-3.96-.06-7.97-.05-11.86-.03-1.7,0-3.39.01-5.09.01-1.69,0-3.41,0-5.12-.01-3.76-.02-7.66-.03-11.5.04-7.02.12-12.22,5.19-12.11,11.79.11,6.44,5.31,11.34,12.11,11.39,5.53.04,11.14.06,16.92.06,5.36,0,10.87-.02,16.59-.05,7.03-.04,12.35-5.02,12.37-11.57.02-6.52-5.27-11.51-12.3-11.62Z"></path><path class="cls-1" d="M235.95,110.66c-2.21-2.19-5.19-3.44-8.18-3.45h-.02c-3.01,0-6.01,1.27-8.23,3.49-2.19,2.19-3.45,5.13-3.45,8.07,0,6.17,5.46,11.58,11.68,11.58h0c6.21,0,11.67-5.4,11.68-11.56,0-2.97-1.27-5.93-3.49-8.13Z"></path><g><path class="cls-1" d="M231.52,226.17c8.82,0,16-7.18,16-16s-7.18-16-16-16-16,7.18-16,16,7.18,16,16,16Z"></path><path class="cls-1" d="M279.85,224.88c-2.3-2.9-6.71-2.9-9.01,0l-17.79,22.39c-2.25,2.83-6.53,2.91-8.88.16l-.85-1c-2.29-2.68-6.44-2.69-8.74-.02l-21.38,24.83c-.9,1.04-1.39,2.38-1.39,3.76v4.21c0,3.18,2.58,5.76,5.76,5.76h84.37c3.18,0,5.76-2.58,5.76-5.76v-17.27c0-1.3-.44-2.56-1.25-3.58l-26.59-33.49Z"></path><path class="cls-1" d="M312.3,167.8h-104.92c-10.15,0-18.41,8.26-18.41,18.41v104.92c0,10.15,8.26,18.41,18.41,18.41h104.92c10.15,0,18.41-8.26,18.41-18.41v-104.92c0-10.15-8.26-18.41-18.41-18.41ZM313.39,190.44v95.96c0,3.31-2.69,6-6,6h-95.97c-3.03,0-5.5-2.47-5.5-5.5v-96.46c0-3.03,2.47-5.5,5.5-5.5h96.47c3.03,0,5.5,2.47,5.5,5.5Z"></path></g></g><g><path class="cls-2" d="M153.21,184.2c1.78-2.95,4.42-5.14,7.73-6.16,3.47-1.07,7.39-1.1,10.65.65,2.47,1.33,4.32,3.52,5.76,5.9,0-23.37,0-46.75,0-70.12,0-7.36,3.43-12.29,9.65-13.89,1.46-.38,3.16-.45,5.25-.46,26.43-.02,53.65-.03,81.36-.03,17.51,0,35.23,0,53.07.01,10.28,0,15.06,4.84,15.06,15.22v.56c2.39,4.17,6.85,7.03,11.78,7.12,4.53.08,9.1-2.26,11.67-5.99,1.37-1.98,2.22-4.24,2.74-6.58-1.89-21.38-18.43-36.65-40.33-36.7-6.68-.02-13.35-.01-20.03,0h-37.53c-25.75.02-52.37.02-78.54-.02h-.09c-9.46,0-17.78,2.71-24.74,8.07-10.46,8.05-15.76,19.36-15.74,33.62.03,24.44.04,49.1.04,73.63.61-1.67,1.32-3.3,2.23-4.82Z"></path><path class="cls-1" d="M368.12,186.17v-63.69c0-.92,0-1.84.01-2.75.01-2.07.03-4.21-.03-6.35-.8,2.24-1.95,4.33-3.63,6.07-3.48,3.58-8.85,5.27-13.73,4.23-3.66-.78-6.85-2.97-9-5.94,0,90.04,0,180.08,0,270.12,0,8.82-3.48,13.62-10.84,14.87,2.49,1.29,4.67,3.09,6.19,5.5,2.94,4.67,2.55,10.91-.29,15.53-1.42,2.31-3.4,4.17-5.62,5.69h2.19c.61,0,1.21-.12,1.77-.36,1.56-.67,3.18-1.26,4.89-1.9,3.98-1.47,8.1-2.99,11.78-5.53,10.86-7.49,16.36-18.86,16.35-33.8-.05-67.23-.04-135.58-.04-201.69Z"></path><path class="cls-1" d="M150.96,383.35c.62-.89,1.26-1.76,1.95-2.59,1.65-1.98,3.63-3.71,6.02-4.71,2.67-1.13,5.8-1.38,8.61-.66,4.3,1.1,7.59,4.3,9.82,8.07,0-30.43,0-60.86,0-91.29v-40.93s0-36.21,0-36.21c0-9.47,0-18.93,0-28.4-.17-.33-.35-.67-.54-.99-1.53-2.68-3.59-5.19-6.48-6.46-3.25-1.43-7.24-1.08-10.45.3-5.2,2.24-7.29,7.52-8.9,12.65,0,20.62,0,41.14,0,61.35v48.74c0,8.3,0,16.59,0,24.89,0,18.44.02,37.45-.02,56.24Z"></path><path class="cls-2" d="M335.3,407.44c-1.67-2.01-3.83-3.48-6.21-4.49-.78.07-1.57.11-2.42.11-44.7.02-89.39.02-134.08,0-10.53,0-15.23-4.75-15.23-15.39v-2.13c-1.03-2.11-2.38-4.07-4.07-5.7-1.99-1.92-4.47-3.33-7.23-3.73-2.65-.39-5.51.11-7.86,1.4-3.11,1.72-5.28,4.59-7.24,7.56,0,1.04,0,2.08,0,3.12-.04,14.71,5.46,25.97,16.34,33.47,3.68,2.54,7.8,4.06,11.78,5.53,1.71.63,3.33,1.23,4.89,1.9.56.24,1.16.36,1.77.36h143.64c2.86-1.73,5.4-3.97,7.01-6.93,2.55-4.71,2.43-10.87-1.06-15.07Z"></path><path class="cls-2" d="M259.61,350.37h-.09c-5.32,0-10.57,2.22-14.39,6.1-3.89,3.95-5.98,9.09-5.88,14.5.21,11.23,9.11,19.98,20.3,19.98h.12c11.15-.07,20.2-9.16,20.17-20.28-.03-11.14-9.11-20.25-20.24-20.3Z"></path><path class="cls-1" d="M265.36,126.28c-2.02-2.54-2.86-5.66-2.66-8.87.19-3.14,1.34-6.17,3.71-8.31.88-.79,1.87-1.43,2.92-1.95-2.5,0-5.01,0-7.51.05-7.02.12-12.22,5.19-12.11,11.79.11,6.44,5.31,11.34,12.11,11.39,2.86.02,5.74.03,8.65.04-1.94-1.06-3.73-2.4-5.1-4.13Z"></path><path class="cls-2" d="M295.39,107.19c-3.96-.06-7.97-.05-11.86-.03-1.7,0-3.39.01-5.09.01-1.69,0-3.41,0-5.12-.01-.43,0-.87,0-1.31,0-2.1.67-4.06,1.7-5.58,3.33-2.11,2.29-2.86,5.44-2.75,8.48.11,2.96,1.33,5.68,3.42,7.77,1.57,1.57,3.46,2.76,5.51,3.68,2.02,0,4.06,0,6.12,0,5.36,0,10.87-.02,16.59-.05,7.03-.04,12.35-5.02,12.37-11.57.02-6.52-5.27-11.51-12.3-11.62Z"></path><path class="cls-1" d="M235.95,110.66c-2.21-2.19-5.19-3.44-8.18-3.45h-.02c-3.01,0-6.01,1.27-8.23,3.49-2.19,2.19-3.45,5.13-3.45,8.07,0,6.17,5.46,11.58,11.68,11.58h0c6.21,0,11.67-5.4,11.68-11.56,0-2.97-1.27-5.93-3.49-8.13Z"></path><g><path class="cls-1" d="M231.52,226.17c8.82,0,16-7.18,16-16s-7.18-16-16-16-16,7.18-16,16,7.18,16,16,16Z"></path><path class="cls-1" d="M279.85,224.88c-2.3-2.9-6.71-2.9-9.01,0l-17.79,22.39c-2.25,2.83-6.53,2.91-8.88.16l-.85-1c-2.29-2.68-6.44-2.69-8.74-.02l-21.38,24.83c-.9,1.04-1.39,2.38-1.39,3.76v4.21c0,3.18,2.58,5.76,5.76,5.76h84.37c3.18,0,5.76-2.58,5.76-5.76v-17.27c0-1.3-.44-2.56-1.25-3.58l-26.59-33.49Z"></path><path class="cls-1" d="M193.25,194.85c2.48,1.63,5.61,1.68,8.24.36,1.79-.9,3.31-2.31,4.43-3.98v-.79c0-3.03,2.47-5.5,5.5-5.5h89.01c.07-.14.21-.25.42-.25,2.43,0,4.88.11,7.31-.1,2.03-.18,4.1-.59,5.86-1.65,1.96-1.17,3.27-3.12,3.91-5.29,1.09-3.76-.63-7.74-3.76-9.76-.61-.06-1.23-.09-1.86-.09h-104.92c-10.15,0-18.41,8.26-18.41,18.41v2.44c.8,2.49,2.1,4.77,4.28,6.2Z"></path><path class="cls-2" d="M207.38,309.55h1.04c2.13-.56,4.07-1.56,5.41-3.35,1.52-2.04,1.89-4.63,1.5-7.1-.42-2.66-1.7-5.34-4.16-6.66-.03-.01-.04-.03-.06-.05-2.89-.16-5.19-2.56-5.19-5.48v-94.03c-1.28,1.55-2.89,2.82-4.77,3.58-2.84,1.15-6.11.88-8.63-.89-1.57-1.1-2.72-2.64-3.56-4.34v99.91c0,10.15,8.26,18.41,18.41,18.41Z"></path><path class="cls-2" d="M313.39,190.44v92c.03.07.05.14.05.23-.08,2.58.32,5.47,2.41,7.23,1.84,1.55,4.72,1.87,7.02,1.46,2.26-.4,4.07-1.83,5.29-3.73,1.35-2.11,2.12-4.57,2.55-7.1v-94.33c0-8.8-6.21-16.17-14.48-17.98.74.71,1.37,1.53,1.85,2.44,2.4,4.5.84,10.48-3.57,13.13-1.38.83-2.9,1.31-4.47,1.58,1.96.84,3.34,2.79,3.34,5.06Z"></path><path class="cls-1" d="M328.04,289.47c-1.7,1.98-4.03,2.97-6.62,3.02-2.53.05-5.25-.56-6.96-2.56-.54-.63-.94-1.34-1.24-2.1-.64,2.62-3,4.58-5.82,4.58h-94.5c2.09,1.72,3.2,4.46,3.5,7.13.3,2.61-.22,5.27-1.85,7.37-.89,1.14-2.04,2.01-3.32,2.64h101.09c10.15,0,18.41-8.26,18.41-18.41v-6.63c-.6,1.8-1.44,3.52-2.68,4.96Z"></path></g></g></svg>