<svg id="Layer_1" xmlns="http://www.w3.org/2000/svg" viewBox="0 0 500 500"><defs><style>
      .cls-1 {
        fill: #0a7ef2;
      }
      .cls-2 {
        fill: #08a6f4;
      }
    </style></defs><g id="Layer_1-2"><g><path class="cls-1" d="M212.88,103.72h97.13c7.17,1.62,13.64,4.63,19.2,9.94,20.58,20.58,41.17,41.17,61.75,61.75,6.71,6.94,10.18,15.03,10.18,24.75v135.75c0,19.89-13.88,33.53-33.77,33.53h-52.5v9.02c0,20.35-13.88,34.23-34,34.23h-148.01c-19.89,0-33.77-13.88-33.77-33.77v-198.43c0-19.89,13.88-33.77,33.77-33.77h52.5v-11.33c.46-11.79,5.55-21.28,15.96-27.29,3.47-2.08,7.86-3.24,11.79-4.63l-.23.23v.02ZM217.51,168.47h-84.64c-8.33,0-12.49,4.16-12.49,12.49v197.73c0,8.33,4.16,12.49,12.72,12.49h147.32c8.56,0,12.72-4.16,12.72-12.49v-134.6h-37.23c-3.47,0-6.71,0-10.18-.46-16.88-2.54-27.98-15.73-28.21-32.84v-42.32h0ZM379.16,200.85h-41.63c-19.89,0-33.77-13.88-33.77-33.77v-41.86h-85.34c-6.01,0-10.64,3.24-11.33,8.56-.69,4.16,0,8.56,0,13.18h9.25c11.33-.46,20.35,3.7,28.21,11.79,19.43,19.66,39.08,39.32,58.74,58.74,7.63,7.63,11.33,16.42,11.33,27.06v103.38h51.34c9.25,0,13.18-3.93,13.18-12.95v-134.14h.02ZM325.51,141.64c0,9.25-.23,18.96,0,28.45,0,5.09,5.09,8.79,10.64,9.02h26.83c-12.72-12.72-24.98-24.98-37.47-37.47ZM276.02,222.36c-12.26-12.26-24.75-24.75-37-37v26.83c0,5.09,4.16,9.71,9.25,9.94,9.48.23,18.96,0,27.75,0v.23Z"></path><g><path class="cls-2" d="M158.07,272.54h0c0-9.71,6.48-17.58,15.96-17.58s15.96,7.86,15.96,17.11h0c0,9.48-6.48,17.58-15.96,17.58s-15.96-7.86-15.96-17.11h0ZM181.43,272.54h0c0-5.55-3.01-9.94-7.4-9.94s-7.17,4.39-7.17,9.71h0c0,5.78,3.01,9.94,7.4,9.94s7.17-4.39,7.17-9.71ZM178.89,317.64l44.4-60.59c.69-1.16,1.85-1.85,3.24-1.85,2.08,0,3.93,1.62,3.93,3.7s-.46,1.85-.93,2.54l-44.4,60.59c-.69,1.16-2.08,1.85-3.47,1.85-2.08,0-3.7-1.62-3.7-3.7s.46-1.85.93-2.54ZM219.36,307.23h0c0-9.71,6.48-17.58,15.96-17.58s15.96,7.86,15.96,17.11h0c0,9.48-6.48,17.58-15.96,17.58s-15.96-7.86-15.96-17.11h0ZM242.72,307.23h0c0-5.55-3.01-9.94-7.4-9.94s-7.17,4.39-7.17,9.71h0c0,5.78,3.01,9.94,7.4,9.94s7.17-4.39,7.17-9.71Z"></path><path class="cls-2" d="M235.31,328.51c-11.33,0-19.89-9.02-19.89-21.28h0c0-12.49,8.79-21.74,20.12-21.74s19.89,9.02,19.89,21.28-8.79,21.74-20.12,21.74ZM225.37,299.83c-1.16,2.08-1.85,4.63-1.85,7.17h0c0,3.47.93,6.71,3.01,9.25-1.62-2.31-2.78-5.55-2.78-9.25s.46-5.09,1.39-7.17h.23ZM244.33,297.98c1.62,2.31,2.54,5.55,2.54,9.02h0c0,2.54-.46,4.63-1.16,6.24.93-2.08,1.39-4.16,1.39-6.24,0-3.24-.93-6.48-3.01-9.02h.24ZM235.31,301.22c-2.31,0-3.01,3.24-3.01,5.55,0,3.24,1.39,6.01,3.24,6.01s3.01-3.24,3.01-5.55h0c0-3.24-1.62-6.01-3.24-6.01ZM181.89,328.05c-4.39,0-7.86-3.47-7.86-7.86s.46-3.47,1.62-4.86h0l44.17-60.59c1.39-2.31,3.93-3.47,6.71-3.47,4.39,0,8.09,3.47,8.09,7.86s-.46,3.47-1.62,4.86l-44.4,60.59c-1.39,2.08-3.93,3.47-6.71,3.47ZM174.03,293.82c-11.33,0-19.89-9.02-19.89-21.28h0c0-12.49,8.79-21.74,20.12-21.74s19.89,9.02,19.89,21.28-8.79,21.74-20.12,21.74ZM164.08,265.14c-1.16,2.08-1.85,4.63-1.85,7.17h0c0,3.47.93,6.71,3.01,9.25-1.62-2.31-2.78-5.55-2.78-9.25s.46-5.09,1.39-7.17h.23ZM183.05,263.29c1.62,2.31,2.54,5.55,2.54,9.02h0c0,2.78-.46,5.09-1.39,6.94,1.16-2.08,1.62-4.63,1.62-6.94s-.93-6.48-3.01-9.02h.24ZM174.03,266.53c-2.31,0-3.01,3.24-3.01,5.55,0,3.24,1.39,6.01,3.24,6.01s3.01-3.24,3.01-5.55h0c0-3.24-1.62-6.01-3.24-6.01Z"></path></g><g><path class="cls-2" d="M314.64,347.94h0v-103.61c0-3.47-.46-6.71-1.16-9.94,0,1.85-.46,3.7-1.16,5.32-3.24,7.17-12.49,6.94-19.2,6.48v132.05c0,8.09-3.93,12.26-11.79,12.49,2.31,1.16,4.16,2.78,5.78,4.63,2.31,3.01,3.47,7.4,2.31,11.1-.69,2.31-2.08,3.93-3.7,5.55,17.35-2.08,28.91-15.26,29.14-33.77v-9.02h0v-21.51l-.23.23h.01Z"></path><path class="cls-2" d="M274.17,391.18h-141.07c-8.56,0-12.72-4.16-12.72-12.49v-187.79c-2.54,3.01-6.01,4.86-10.41,5.09-4.39,0-8.56-2.08-11.1-5.32v188.48c0,19.66,13.88,33.77,33.77,33.77h148.01c3.01-1.39,5.55-3.24,6.48-6.48.93-3.47-.23-7.4-2.78-9.94-2.78-2.78-6.48-4.16-10.18-5.09v-.23h0Z"></path><path class="cls-1" d="M308.63,224.21c0-.46-.46-.69-.46-1.16-1.39-1.85-3.01-3.93-4.86-5.55-18.04-17.81-35.85-35.62-53.65-53.65-4.63-1.39-9.48-1.62-13.18,1.85-6.24,6.24-2.31,14.34,2.54,20.12v-.46c12.26,12.26,24.75,24.75,37,37-8.79,0-18.27.23-27.75,0-5.09,0-9.25-4.86-9.25-9.94v-23.13c-3.47-3.7-6.94-8.09-7.86-13.18-1.62-8.33,5.09-15.96,13.64-15.49h1.85l-2.08-2.08c-7.86-8.09-16.88-12.26-28.21-11.79h-83.49c-19.66,0-33.77,13.88-33.77,33.77v5.09c1.62,4.86,6.48,8.33,12.03,7.86,4.16-.46,7.17-3.01,9.48-6.48v-6.48c0-8.33,4.16-12.49,12.49-12.49h84.64v42.09c0,17.11,11.1,30.3,28.21,32.84,3.24.46,6.71.23,10.18.46h37.23c3.7.46,7.63.69,11.33-.46,3.24-.93,5.78-3.01,6.48-6.48,1.16-4.39-.23-9.02-2.08-12.95l-.46.69h0Z"></path><path class="cls-1" d="M303.08,116.44c1.39-3.7,4.39-6.48,8.09-7.86,2.54-1.16,5.32-1.62,8.09-1.62-3.01-1.39-6.01-2.31-9.25-3.24h-97.13c-3.93,1.62-8.09,2.54-11.79,4.63-10.18,6.01-15.49,15.26-15.96,27.29v8.79h21.74c0-3.7-.23-7.17,0-10.64.69-5.32,5.32-8.56,11.33-8.56h82.79c.46-3.01.69-6.01,1.62-9.02l.46.23h.01Z"></path><path class="cls-2" d="M375.23,200.85h3.93v81.41c1.16-1.62,2.54-3.01,4.63-3.93,3.93-1.85,8.33-2.08,12.26,0,1.85.93,3.47,2.54,4.86,4.16v-82.1c0-9.71-3.47-18.04-10.18-24.75-3.24-3.24-6.24-6.24-9.48-9.48,1.16,3.93.93,7.86-2.08,11.1-4.39,4.39-10.64,3.47-16.19,2.08l.23.23h-26.83c-5.32,0-10.41-3.93-10.64-9.02-.46-9.48,0-19.2,0-28.45,11.33,11.33,22.66,22.66,34.23,34.23,3.01.69,6.01,1.62,9.25,1.85,3.7.23,7.4-.46,9.48-3.7,1.62-2.54,1.16-5.55.23-8.33-.46-1.39-.93-2.54-1.62-3.93-15.96-15.96-32.15-32.15-48.1-48.1-1.39-1.39-2.78-2.54-4.16-3.47-4.39-1.39-9.02-1.39-13.18.69-3.24,1.62-5.78,4.16-6.71,7.63-.69,2.31-.93,4.63-1.16,6.94h0v41.86c0,19.66,13.88,33.77,33.77,33.77h37.7l-.23-.69h-.01Z"></path><path class="cls-1" d="M393.04,279.48c-3.47-.93-7.63,0-10.41,2.31-1.62,1.62-2.78,3.47-3.47,5.55v47.64c0,9.25-3.93,12.95-13.18,12.95h-49.03v21.51h50.19c19.89,0,33.77-13.88,33.77-33.53v-49.03c-1.39-3.47-4.16-6.48-7.86-7.63v.23h-.01Z"></path></g></g></g></svg>