<svg id="Layer_1" xmlns="http://www.w3.org/2000/svg" viewBox="0 0 500 500"><defs><style>
      .cls-1 {
        fill: #f9679b;
      }
      .cls-2 {
        fill: #e02889;
      }
    </style></defs><g id="Layer_1-2"><g><path class="cls-1" d="M402.85,190.72v56.05c0,20.7-13.95,34.65-34.65,34.65h-73.49c-20,0-34.19-14.19-34.19-34.19v-113.5c0-20,14.19-34.19,34.19-34.19h73.96c20,0,34.19,14.19,34.19,34.19v57.21-.23h-.01ZM380.99,190.49v-56.52c0-8.61-4.19-12.79-12.79-12.79h-73.26c-8.37,0-12.56,4.19-12.56,12.56v113.26c0,8.37,4.19,12.56,12.79,12.56h73.26c8.37,0,12.56-4.19,12.56-12.56v-56.52h0Z"></path><path class="cls-1" d="M238.66,314.68v56.75c0,20.47-13.95,34.42-34.65,34.42h-73.26c-20.23,0-34.42-14.19-34.42-34.42v-113.5c0-20,14.19-34.19,33.96-34.19h74.66c19.54,0,33.72,14.19,33.72,33.72v57.21h-.01ZM118.18,314.68v56.52c0,8.84,4.19,13.02,12.79,13.02h72.8c8.61,0,12.79-4.19,12.79-12.79v-112.8c0-8.37-4.19-12.56-12.56-12.56h-73.49c-8.14,0-12.56,4.19-12.56,12.33v56.52l.23-.23h0Z"></path><path class="cls-1" d="M167.49,99.32h37.21c19.77,0,33.72,14.19,33.96,33.96v39.07c0,19.54-14.19,33.72-33.72,33.72h-74.89c-19.3,0-33.72-14.42-33.72-33.72v-39.3c0-19.3,14.42-33.49,33.49-33.49h37.68v-.23h0ZM167.72,121.18h-37.68c-7.21,0-11.86,4.42-11.86,11.63v39.54c0,6.98,4.65,11.63,11.63,11.63h75.12c7.21,0,11.63-4.65,11.63-11.86v-39.07c0-7.67-4.42-12.09-12.09-12.09h-36.98l.23.23h0Z"></path><path class="cls-1" d="M331.69,406.08h-36.98c-19.77,0-33.96-14.19-33.96-34.19v-38.61c0-19.54,14.19-33.96,33.96-33.96h74.66c19.54,0,33.72,14.19,33.96,33.96v39.07c0,19.54-14.19,33.72-33.72,33.72h-37.92ZM331.92,383.99h37.21c7.44,0,11.86-4.42,11.86-12.09v-39.07c0-7.44-4.65-11.86-11.86-11.86h-74.42c-7.67,0-12.09,4.42-12.09,12.09v38.61c0,7.67,4.42,12.09,12.09,12.09h37.21v.23Z"></path></g><g><path class="cls-2" d="M402.85,133.51c0-20-14.19-34.19-34.19-34.19h-58.84c4.42,2.56,7.67,6.98,6.98,12.56-.47,3.95-3.02,7.21-6.28,9.54h57.91c8.61,0,12.79,4.19,12.79,12.79v113.03c0,4.65-1.4,7.91-3.95,10-1.16,2.33-1.63,4.88-1.4,7.44,0,1.63.47,3.02,1.16,4.42.93,1.4,2.56,2.56,4.19,3.26,3.72,1.63,7.91,1.4,11.86.23,6.51-6.05,10.23-14.88,10.23-25.58v-113.26l-.47-.23h0Z"></path><path class="cls-1" d="M374.94,270.26c-2.09-3.26-2.09-7.67-.93-11.4-1.63.47-3.49.7-5.58.7h-73.26c-8.37,0-12.79-4.19-12.79-12.56v-113.26c0-8.37,4.19-12.56,12.56-12.56h9.54c6.51-1.16,11.63-8.37,8.84-14.88-1.86-4.19-6.28-6.05-10.47-6.98h-8.37c-20,0-34.19,14.19-34.19,34.19v113.5c0,20,14.19,34.19,34.19,34.19h73.49c8.14,0,15.12-2.09,20.7-6.05-5.35.47-11.4-.47-14.19-5.12l.47.23h-.01Z"></path><path class="cls-2" d="M143.53,406.08c1.63-1.16,3.26-2.79,4.42-4.42,2.09-3.02,3.02-7.21,1.4-10.7-1.4-3.02-4.42-4.42-7.21-5.81-.7-.23-1.4-.47-2.09-.93h-9.07c-8.84,0-12.79-4.19-12.79-13.02v-113.03c0-8.14,4.19-12.33,12.56-12.33h62.33c-2.09-2.09-3.72-4.65-4.65-7.44-1.86-5.81.7-10.7,4.65-14.42h-62.56c-19.77,0-33.96,14.19-33.96,34.19v113.5c0,20.23,14.19,34.42,34.42,34.42h12.79-.24Z"></path><path class="cls-1" d="M238.66,257.47c0-19.54-14.19-33.49-33.72-33.72h-8.37c-4.42,3.26-7.91,8.37-5.81,14.19.93,3.02,3.02,5.58,5.81,7.67h7.91c8.37,0,12.56,4.19,12.56,12.56v112.8c0,8.61-4.19,12.79-12.79,12.79h-58.14c3.02,1.63,5.58,4.19,6.28,7.67.93,4.19-.23,8.37-2.79,11.86-.7.93-1.4,1.63-2.09,2.56h56.98c20.7,0,34.65-13.95,34.65-34.42v-113.96h-.48Z"></path><path class="cls-2" d="M100.04,153.97c2.33,2.33,5.81,3.49,8.84,3.72,3.02,0,6.05-.47,8.14-2.56l1.16-1.16v-20.93c0-7.21,4.65-11.63,11.86-11.63h74.66c7.67,0,12.09,4.42,12.09,12.09v31.16c.7-1.16,1.63-2.09,2.56-3.02,4.88-3.95,11.63-2.79,16.28.7,1.16.93,2.09,1.86,3.02,3.02v-32.1c0-19.77-14.19-33.72-33.96-33.96h-74.89c-19.3,0-33.49,14.42-33.49,33.49v13.49h0c.7,2.79,1.63,5.35,3.72,7.44v.25Z"></path><path class="cls-1" d="M237.73,167.93c-1.63-2.56-3.95-4.42-6.74-5.58-3.02-1.16-6.28-1.63-9.07.23-2.56,1.63-4.19,4.19-5.12,6.74v2.79c0,7.21-4.42,11.86-11.63,11.86h-75.12c-6.98,0-11.63-4.65-11.63-11.63v-15.35l-.47.47c-5.58,4.19-14.88,2.79-19.77-2.09-.7-.7-1.16-1.63-1.86-2.33v19.3c0,19.3,14.42,33.72,33.72,33.72h74.89c19.54,0,33.49-14.42,33.72-33.72v-2.33c-.23-.7-.47-1.4-.93-1.86v-.23h0Z"></path><path class="cls-1" d="M276.1,395.62c-.93-4.19-.23-9.07,3.26-11.86,1.86-1.63,4.42-2.33,6.74-2.56-2.33-2.09-3.72-5.12-3.72-9.3v-38.61c0-7.67,4.42-12.09,12.09-12.09h15.58c3.26-3.72,5.12-8.84,3.95-13.72-.93-4.19-3.72-6.74-7.44-8.14h-12.33c-19.54,0-33.72,14.42-33.96,33.96v38.61c0,14.19,7.21,25.35,18.61,30.7-1.63-2.09-2.56-4.42-3.26-6.98h.48Z"></path><path class="cls-2" d="M369.13,299.33h-57.21c.23,0,.47.47.7.7,4.65,4.19,5.12,11.16,3.02,16.75-.7,1.63-1.4,3.26-2.33,4.42h55.82c7.44,0,11.86,4.65,11.86,11.86v39.07c0,7.44-4.42,11.86-11.86,12.09h-74.42c-1.63,0-3.02-.23-4.42-.7-3.72,0-8.14,0-10.7,3.26-2.33,3.02-1.86,7.91-.47,11.4,1.16,2.56,2.79,4.65,4.88,6.51,3.26.93,6.74,1.4,10.47,1.4h74.66c19.54,0,33.72-14.19,33.72-33.72v-39.07c0-19.54-14.19-33.96-33.96-33.96h.24Z"></path></g></g></svg>