<svg id="Layer_1" xmlns="http://www.w3.org/2000/svg" viewBox="0 0 500 500"><defs><style>
      .cls-1 {
        fill: #0a7ef2;
      }
      .cls-2 {
        fill: #08a6f4;
      }
    </style></defs><g id="Layer_1-2"><path class="cls-2" d="M422.95,263.76h0v-2.43h0c-.97-5.58-5.1-10.2-10.92-10.68-3.16-.24-6.8.49-9.71,1.94-45.15,20.39-90.54,41.02-135.69,61.66-2.67,1.21-5.1,1.46-8.01.49-52.19-16.26-104.62-32.28-157.05-48.31v-25.25c51.7,15.78,103.41,31.8,155.11,47.82,5.34,1.7,9.95,1.46,15.05-.97,20.15-9.47,40.05-18.69,60.2-27.92,14.56-6.55,29.37-12.62,43.45-19.9,17.23-8.74,29.13-22.57,31.8-42.24,1.7-12.14,1.7-24.52,2.18-36.65.24-8.25-3.64-12.87-11.89-14.81-38.6-9.47-76.95-18.93-115.54-28.4-18.45-4.61-36.65-9.22-55.1-13.35-8.5-1.94-15.54,3.4-16.26,12.14-.49,6.07-.73,12.14-1.21,18.21-1.46,16.26-9.22,28.4-24.76,34.71-32.04,13.35-63.84,26.94-95.64,40.3-5.58,2.43-9.95,5.34-11.89,11.41v4.61h0v48.31h0v5.34h0v47.09h0v5.34c1.7,5.58,5.34,8.98,10.92,10.68,56.32,17.23,112.87,34.71,169.19,51.95,4.85,1.46,9.22,1.21,13.59-.97,47.33-21.6,94.67-43.21,142-64.57,1.21-.49,2.67-1.21,3.88-1.94,4.13-2.91,6.31-6.8,5.83-11.89v-52.19l.49.49-.02-.02ZM134.09,219.82c20.88-8.74,41.75-17.48,62.38-26.46,14.08-6.31,25.73-15.78,32.53-30.1,3.64-7.77,5.83-16.02,7.04-24.52,0-1.46.49-3.16.73-4.85,48.79,12.14,97.34,24.03,145.89,35.93,0,9.47,0,18.45-2.43,27.43-1.94,7.52-6.55,13.59-13.35,16.99-10.44,5.34-21.12,10.44-31.8,15.29-23.06,10.68-46.12,21.12-69.18,31.8-2.18.97-4.13,1.21-6.31.49-41.99-12.87-83.99-25.97-125.98-38.84-.97-.24-1.94-.73-3.64-1.21,1.94-.73,3.16-1.46,4.37-1.94h-.25ZM265.17,367.89c-1.7.73-3.88.97-5.58.49-28.16-8.5-56.07-17.23-83.99-25.73-24.76-7.52-49.28-15.29-74.04-22.82v-25.25c51.7,15.78,103.41,31.8,155.11,47.82,5.34,1.7,9.95,1.21,15.05-.97,42.24-19.42,84.72-38.6,126.95-57.77v24.03c-44.42,20.15-88.84,40.54-133.51,60.69v-.49h0Z"></path><path class="cls-1" d="M389.45,149.18c-2.43,1.7-4.13,4.37-5.1,7.28-1.7,4.13-2.18,8.74-2.43,13.35h.73c0,9.47,0,18.45-2.43,27.43-1.94,7.52-6.55,13.59-13.35,16.99-10.44,5.34-21.12,10.44-31.8,15.29-23.06,10.68-46.12,21.12-69.18,31.8-.49,0-.97.49-1.46.49-1.94,1.46-3.88,2.67-5.83,3.88-1.95,1.21-3.88,2.67-4.85,5.1-1.7,4.37-.97,10.2,1.94,13.84,2.18,2.67,5.34,4.37,8.74,5.34,2.43,0,4.85-.73,7.52-1.94,20.15-9.47,40.05-18.69,60.2-27.92,14.56-6.55,29.37-12.62,43.45-19.9,17.23-8.74,29.13-22.57,31.8-42.24,1.7-12.14,1.7-24.52,2.18-36.65.24-8.01-3.4-12.38-10.92-14.56-3.16,0-6.55.73-9.22,2.67v-.24h0Z"></path><path class="cls-2" d="M281.92,117.63c-18.45-4.61-36.65-9.22-55.1-13.35-8.5-1.94-15.54,3.4-16.26,12.14-.49,6.07-.73,12.14-1.21,18.21-1.46,16.26-9.22,28.4-24.76,34.71-31.07,12.87-61.9,26.22-92.73,39.08,13.84,4.37,27.43,8.74,41.75,11.41h.24c20.88-8.74,41.75-17.48,62.38-26.46,14.08-6.31,25.73-15.78,32.53-30.1,3.64-7.77,5.83-16.02,7.04-24.52,0-1.46.49-3.16.73-4.85,47.82,11.89,95.15,23.55,142.73,35.2v-2.67c.49-5.58,1.7-11.41,4.85-15.78,2.18-2.91,4.85-4.61,8.01-5.58-36.9-8.98-73.79-18.21-110.69-27.19l.49-.24h0Z"></path><path class="cls-1" d="M87.73,343.13c2.18-.49,4.37-.97,6.55-1.94s4.37-2.18,5.58-4.37c1.21-1.94,1.94-4.37,1.94-6.55.24-3.64,0-7.28-.24-10.92h0v-20.63c-.73-.49-1.46-1.21-2.18-1.94-5.58-5.1-9.47-11.89-8.5-19.66.73-6.31,4.37-12.14,10.68-13.35v-23.06c51.7,15.78,103.17,31.56,154.87,47.58-1.46-1.21-2.91-2.67-3.88-4.37-2.67-4.37-3.16-11.17-.73-15.78,1.7-3.16,4.85-4.85,8.01-6.55h-.49c-41.99-12.87-83.99-25.97-125.98-38.84-.97-.24-1.94-.73-3.64-1.21h0c-14.08-2.91-27.67-7.28-41.27-11.65-5.34,2.18-9.47,5.34-11.41,11.17v4.61h0v48.31h0v5.34h0v47.09h0v5.34c1.7,5.34,5.1,8.74,10.44,10.68l.24.73v-.03Z"></path><path class="cls-2" d="M104.23,320.32c.24,4.61.73,8.98-.24,13.35-1.21,5.83-6.07,9.22-11.41,10.92,53.89,16.51,107.53,33.01,161.42,49.52-1.46-2.43-2.43-5.34-2.67-8.01-.73-4.37-.49-8.74,2.18-12.38,1.7-2.18,3.88-4.13,6.07-5.83-27.92-8.5-55.83-17.23-83.75-25.73-23.79-7.28-47.58-14.56-71.37-22.09l-.24.24h.01Z"></path><path class="cls-2" d="M259.83,342.89c-2.18-1.21-4.13-2.91-5.34-5.34-2.43-4.13-2.43-9.71-.73-14.08,1.21-3.16,3.4-6.07,5.83-8.25h-.97c-52.19-16.26-104.62-32.28-156.81-48.31-7.52,1.46-9.95,11.41-8.01,18.21,1.21,4.37,4.37,8.25,7.77,11.17v-1.7c51.7,15.78,103.41,31.8,155.11,47.82.97.24,2.18.49,3.16.73v-.24h-.01Z"></path><path class="cls-1" d="M422.95,263.76h0v-2.43h0c-.97-5.58-5.1-10.2-10.92-10.68-3.16-.24-6.8.49-9.71,1.94-45.15,20.39-90.54,41.02-135.69,61.66-.97.49-1.94.73-2.91.97-4.13,2.43-7.28,6.31-8.25,10.92-.97,3.88,0,8.5,2.43,11.89,2.18,2.67,5.34,4.13,8.5,4.61h.24c1.7-.24,3.4-.97,5.1-1.7,42.24-19.42,84.72-38.6,126.95-57.77v24.03c-44.42,20.15-88.84,40.54-133.51,60.69-.73.24-1.46.49-2.18.49-3.16,2.18-6.55,4.37-8.5,7.77-2.18,3.64-1.7,8.01-.73,11.89.73,3.4,2.43,6.07,4.85,7.52,4.37.97,8.25.73,12.38-1.21,47.33-21.6,94.67-43.21,142-64.57,1.21-.49,2.67-1.21,3.88-1.94,4.13-2.91,6.31-6.8,5.83-11.89v-52.19h.24Z"></path></g></svg>