<svg xmlns="http://www.w3.org/2000/svg" version="1.1" viewBox="0 0 1132.8 278.2"><defs><style>
      .cls-1 {
        opacity: .5;
      }
      .cls-1, .cls-2 {
        fill: #fff;
      }
    </style></defs><g><g id="Layer_1"><g id="Type"><path class="cls-2" d="M297.7,98.6h114.7v21.4h-45.1v120.3h-24.8v-120.3h-44.9v-21.4h0ZM407.5,137.7h21.2v19.9h.4c.7-2.8,2-5.5,3.9-8.1s4.2-5.1,7-7.2c2.7-2.2,5.7-3.9,9-5.3,3.3-1.3,6.7-2,10.1-2s4.5.1,5.5.2c1,.1,2,.3,3.1.4v21.8c-1.6-.3-3.2-.5-4.9-.7-1.7-.2-3.3-.3-4.9-.3-3.8,0-7.4.8-10.8,2.3s-6.3,3.8-8.8,6.8-4.5,6.6-6,11-2.2,9.4-2.2,15.1v48.8h-22.6v-102.7h0ZM571.5,240.3h-22.2v-14.3h-.4c-2.8,5.2-6.9,9.3-12.4,12.4s-11.1,4.7-16.8,4.7c-13.5,0-23.3-3.3-29.3-10s-9-16.8-9-30.3v-65.1h22.6v62.9c0,9,1.7,15.4,5.2,19.1,3.4,3.7,8.3,5.6,14.5,5.6s8.7-.7,11.9-2.2,5.8-3.4,7.7-5.9c2-2.4,3.4-5.4,4.3-8.8.9-3.4,1.3-7.1,1.3-11.1v-59.6h22.6v102.6ZM610,207.4c.7,6.6,3.2,11.2,7.5,13.9,4.4,2.6,9.6,4,15.7,4s4.5-.2,7.2-.5,5.3-1,7.6-1.9c2.4-.9,4.3-2.3,5.9-4.1,1.5-1.8,2.2-4.1,2.1-7.1,0-2.9-1.2-5.3-3.2-7.1-2-1.9-4.5-3.3-7.6-4.5-3.1-1.1-6.7-2.1-10.6-2.9-4-.8-8-1.6-12.1-2.6-4.2-.9-8.3-2.1-12.2-3.4-3.9-1.3-7.4-3.1-10.5-5.4-3.1-2.2-5.6-5.1-7.4-8.6s-2.8-7.8-2.8-13,1.4-10.2,4.1-14,6.2-6.8,10.3-9.1c4.2-2.3,8.8-3.9,13.9-4.9s10-1.4,14.6-1.4,10.3.6,15.2,1.7c4.8,1.1,9.2,2.9,13.1,5.5,3.9,2.5,7.2,5.8,9.7,9.8,2.6,4,4.2,8.9,4.9,14.6h-23.6c-1.1-5.4-3.5-9.1-7.4-10.9-3.9-1.9-8.4-2.8-13.4-2.8s-3.5.1-5.7.4c-2.2.3-4.2.8-6.2,1.5-1.9.7-3.5,1.8-4.9,3.2s-2,3.2-2,5.5,1,5,2.9,6.8,4.4,3.1,7.5,4.3,6.7,2.1,10.6,2.9c4,.8,8.1,1.7,12.3,2.6,4.1.9,8.1,2.1,12.1,3.4,4,1.3,7.5,3.1,10.6,5.4s5.6,5.1,7.5,8.5,2.9,7.7,2.9,12.7-1.4,11.2-4.2,15.5c-2.8,4.2-6.4,7.7-10.8,10.3-4.4,2.6-9.4,4.6-14.8,5.8-5.4,1.2-10.8,1.8-16.1,1.8s-12.5-.7-18-2.2-10.3-3.7-14.3-6.6c-4-3-7.2-6.7-9.5-11.1-2.3-4.4-3.5-9.7-3.7-15.8l22.8-.2h0ZM684.6,137.7h17.1v-30.8h22.6v30.8h20.5v16.9h-20.5v54.8c0,2.4,0,4.4.3,6.1.2,1.7.7,3.2,1.4,4.4s1.8,2.1,3.3,2.7c1.5.6,3.4.9,6,.9s3.2,0,4.8-.1,3.2-.3,4.8-.7v17.5c-2.5.3-5,.5-7.3.8s-4.8.4-7.3.4c-6,0-10.8-.6-14.4-1.7-3.6-1.1-6.5-2.8-8.5-5s-3.4-4.9-4.2-8.2c-.7-3.3-1.2-7.1-1.3-11.3v-60.5h-17.1l-.2-17h0ZM760.7,137.7h21.4v13.9h.4c3.2-5.9,7.6-10.2,13.3-12.8s11.8-3.9,18.5-3.9,15.1,1.4,21.1,4.3,11,6.8,15,11.7,7,10.8,8.9,17.4,3,13.7,3,21.2-.9,13.6-2.7,20.1-4.5,12.2-8.1,17.2-8.2,8.9-13.8,11.9-12.1,4.5-19.7,4.5-6.6-.3-9.9-.9c-3.3-.6-6.5-1.6-9.5-2.9-3-1.3-5.9-3-8.4-5.1s-4.7-4.5-6.5-7.2h-.4v51.2h-22.6v-140.6h0ZM839.7,189.1c0-4.6-.6-9.1-1.8-13.5s-3-8.2-5.4-11.6-5.4-6.1-8.9-8.1c-3.6-2.1-7.7-3.1-12.3-3.1-9.5,0-16.7,3.3-21.5,9.9-4.8,6.6-7.2,15.4-7.2,26.4s.6,10,1.9,14.4,3.1,8.2,5.7,11.4c2.5,3.2,5.5,5.7,9,7.5,3.5,1.9,7.6,2.8,12.2,2.8s9.5-1.1,13.1-3.2c3.6-2.1,6.5-4.9,8.8-8.2s4-7.2,5-11.5c.9-4.3,1.4-8.7,1.4-13.2ZM879.6,98.6h22.6v21.4h-22.6v-21.4ZM879.6,137.7h22.6v102.6h-22.6v-102.6ZM922.4,98.6h22.6v141.7h-22.6V98.6ZM1014.3,243.1c-8.2,0-15.5-1.4-21.9-4.1-6.4-2.7-11.8-6.4-16.3-11.2-4.4-4.8-7.8-10.4-10.1-17.1-2.3-6.6-3.5-13.9-3.5-21.8s1.2-15,3.5-21.6,5.7-12.3,10.1-17.1c4.4-4.8,9.9-8.5,16.3-11.2,6.4-2.7,13.7-4.1,21.9-4.1s15.5,1.4,21.9,4.1,11.8,6.4,16.3,11.2c4.4,4.8,7.8,10.5,10.1,17.1,2.3,6.6,3.5,13.8,3.5,21.6s-1.2,15.2-3.5,21.8-5.7,12.3-10.1,17.1-9.9,8.5-16.3,11.2c-6.4,2.7-13.7,4.1-21.9,4.1ZM1014.3,225.2c5,0,9.4-1.1,13.1-3.2,3.7-2.1,6.8-4.9,9.1-8.3,2.4-3.4,4.1-7.3,5.3-11.6,1.1-4.3,1.7-8.7,1.7-13.2s-.6-8.7-1.7-13.1c-1.1-4.4-2.9-8.2-5.3-11.6s-5.4-6.1-9.1-8.2c-3.7-2.1-8.1-3.2-13.1-3.2s-9.4,1.1-13.1,3.2c-3.7,2.1-6.8,4.9-9.1,8.2s-4.1,7.2-5.3,11.6c-1.1,4.4-1.7,8.7-1.7,13.1s.6,8.9,1.7,13.2c1.1,4.3,2.9,8.2,5.3,11.6s5.4,6.2,9.1,8.3c3.7,2.2,8.1,3.2,13.1,3.2ZM1072.7,137.7h17.1v-30.8h22.6v30.8h20.4v16.9h-20.4v54.8c0,2.4,0,4.4.3,6.1.2,1.7.7,3.2,1.4,4.4s1.8,2.1,3.3,2.7c1.4.6,3.4.9,5.9.9s3.2,0,4.8-.1c1.6-.1,3.2-.3,4.8-.7v17.5c-2.5.3-5,.5-7.3.8s-4.8.4-7.3.4c-6,0-10.8-.6-14.4-1.7-3.6-1.1-6.5-2.8-8.5-5-2.1-2.2-3.4-4.9-4.2-8.2-.7-3.3-1.2-7.1-1.3-11.3v-60.5h-17.1v-17h-.1Z"></path></g><g><polygon class="cls-2" points="271.3 98.6 167.7 98.6 135.7 0 103.6 98.6 0 98.5 83.8 159.5 51.8 258 135.7 197.1 187.5 159.5 271.3 98.6"></polygon><polygon class="cls-2" points="194.7 181.8 135.7 197.1 219.5 258 187.5 159.5 194.7 181.8"></polygon><polygon class="cls-1" points="187.5 159.5 135.7 197.1 194.7 181.8 187.5 159.5"></polygon></g></g></g></svg>